<?xml version="1.0" encoding="utf-8"?>
<!DOCTYPE svg PUBLIC "-//W3C//DTD SVG 20010904//EN" "http://www.w3.org/TR/2001/REC-SVG-20010904/DTD/svg10.dtd">
<svg version="1.0" xmlns="http://www.w3.org/2000/svg" width="2341px" height="743px" viewBox="0 0 2341 743" preserveAspectRatio="xMidYMid meet">
 <g fill="#000000">
  <path d="M250.5 565 c-46.5 -7.6 -87.8 -27.8 -120.9 -59.1 -42.9 -40.6 -68.4 -96.3 -70.3 -153.6 l-0.6 -17.3 18.5 0 18.5 0 0.6 12.8 c1.5 31.6 12.9 65.7 31.3 93.7 24.5 37.3 62.4 66.3 103.4 79.1 17.1 5.4 39.5 9.4 52.5 9.4 l6.5 0 0 18.5 0 18.5 -14.2 -0.1 c-8.5 -0.1 -18.8 -0.8 -25.3 -1.9z"/>
  <path d="M261.5 500.4 c-70.9 -10.7 -125.4 -65.3 -136.6 -136.9 -1.6 -10.3 -1.6 -42.7 0 -53 9.2 -58.4 47.5 -106.9 100.9 -127.6 17.3 -6.7 38.5 -10.9 54.7 -10.9 l9.5 0 0 18.4 0 18.5 -5.7 0.6 c-23.2 2.4 -33.7 5.2 -49.8 12.9 -35.6 17.3 -60.8 48.5 -70.5 87.6 -3 12 -3.8 33.4 -1.6 45.7 7.2 41.5 33.4 76.6 71.1 95.5 13.5 6.8 35.3 12.8 46.6 12.8 2 0 5.1 0.3 6.8 0.6 l3.1 0.7 0 18.3 0 18.4 -9.7 -0.1 c-5.4 -0.1 -13.8 -0.7 -18.8 -1.5z"/>
  <path d="M569.8 455.4 c-46.8 -8.5 -74.7 -47.1 -69.7 -96.4 1.9 -18.9 8.6 -34.3 20.7 -47.1 21.4 -22.8 43 -29.5 92.7 -28.7 l19 0.3 0.3 16.1 0.2 16.2 -25.2 0.4 c-24.4 0.4 -25.6 0.5 -33.1 3.1 -21.1 7.3 -34.6 23.4 -37.8 45.1 -1.4 9.5 0.5 20 5.5 30.2 6.4 12.8 15.9 21.2 29.7 26.1 7.1 2.6 8.4 2.7 33.9 3.2 l26.5 0.6 0 16 0 16 -27.5 0.2 c-19.8 0.1 -29.6 -0.3 -35.2 -1.3z"/>
  <path d="M676 412.1 l0 -45 41.3 -0.3 c45.3 -0.4 45.1 -0.4 54.1 -6.9 15.3 -10.9 11.8 -32.8 -6.4 -40.1 -5.3 -2.2 -6.8 -2.3 -47.2 -2.6 l-41.8 -0.3 0 -16.5 0 -16.5 46.3 0.4 c38.8 0.3 47.3 0.7 53.2 2.1 20.9 5 35.2 18 40 36.1 2.1 8.1 2 28.3 -0.1 35.6 -4.2 14.1 -13 24.7 -25.6 30.7 -4.3 2 -7.8 4.1 -7.8 4.5 0 0.5 9 13.4 20 28.8 16.8 23.5 20 28.5 20 31.4 l0 3.5 -19.9 0 -19.9 0 -17.8 -25.2 c-9.8 -13.9 -19.1 -27 -20.7 -29 l-2.9 -3.8 -14.9 0 -14.9 0 -0.2 28.8 -0.3 28.7 -17.2 0.3 -17.3 0.2 0 -44.9z"/>
  <path d="M908.6 455.4 c-16.9 -4.1 -32.8 -16.6 -39.9 -31.4 -7.3 -15.3 -7.1 -12.8 -7.5 -79.8 l-0.3 -60.2 16.8 0.2 16.8 0.3 0.5 54.5 c0.6 59.1 0.5 58.4 6.4 68.4 3.3 5.7 10.6 12 16.2 14.2 l4.4 1.7 0 16.8 0 16.9 -3.7 -0.1 c-2.1 0 -6.5 -0.7 -9.7 -1.5z"/>
  <path d="M1046.5 455.8 c-0.3 -0.8 -0.4 -8.1 -0.3 -16.3 l0.3 -15 29 -0.5 c31.6 -0.6 34.6 -1.1 45.1 -7.1 16.1 -9.1 25.7 -25.1 27.1 -45.5 l0.6 -8.4 18 0 18 0 -0.5 14.3 c-0.6 16.2 -2.4 23.4 -9 35.7 -11 20.6 -29.1 34.4 -53.8 41.1 -7.8 2.1 -11 2.3 -41.2 2.7 -27.2 0.3 -32.9 0.1 -33.3 -1z"/>
  <path d="M1281 398 l0 -59 17.5 0 17.5 0 0 59 0 59 -17.5 0 -17.5 0 0 -59z"/>
  <path d="M1567.2 370.8 l0.3 -86.3 17 0 17 0 0.3 69.7 0.2 69.8 43.3 0.2 43.2 0.3 0 16 0 16 -60.8 0.3 -60.7 0.2 0.2 -86.2z"/>
  <path d="M1793.2 370.8 l0.3 -86.3 17.5 0 17.5 0 0.3 86.3 0.2 86.2 -18 0 -18 0 0.2 -86.2z"/>
  <path d="M1941.2 374 c-18.1 -49.6 -30.2 -84.4 -30.2 -86.5 l0 -3.5 18.6 0.2 18.6 0.3 12.4 32 c17.2 44.4 48.6 133.8 48.2 137.2 l-0.3 2.8 -18.6 0.3 -18.5 0.2 -30.2 -83z"/>
  <path d="M2112.4 455.7 c-0.2 -0.7 -0.3 -8 -0.2 -16.2 l0.3 -15 64.5 0 64.5 0 0.3 16.3 0.2 16.2 -64.5 0 c-51.9 0 -64.7 -0.3 -65.1 -1.3z"/>
  <path d="M943 439.8 l0 -16.3 6.5 -3.4 c6.8 -3.5 12.3 -8.9 15.7 -15.5 4.4 -8.5 4.8 -14.1 4.8 -68.9 l0 -51.7 17.3 0.2 17.2 0.3 0.3 50 c0.4 64.1 -0.4 72 -9 89.5 -8.9 18.2 -29.3 32 -47.5 32 l-5.3 0 0 -16.2z"/>
  <path d="M265.5 435 c-40 -8 -69.8 -39.4 -76 -80 -5.7 -37.2 4.9 -69.8 30.2 -93 18.4 -16.8 40.8 -25 68.4 -25 29.6 0 53.6 10 72.6 30.3 7.6 8.1 11 13.1 16.1 23.3 6.5 12.9 10.2 27.9 10.2 41.7 l0 6.7 -46.9 0 c-25.8 0 -47.6 0.3 -48.5 0.6 -1.4 0.5 -1.6 5.8 -1.6 49 l0 48.4 -7.7 -0.1 c-4.3 0 -11.8 -0.9 -16.8 -1.9z"/>
  <path d="M2015.6 411.3 c-1.4 -3.8 -4.6 -12.2 -7.1 -18.8 -2.9 -7.8 -4.5 -13.6 -4.5 -16.5 0 -3.6 3.8 -13.8 17.8 -48 l17.8 -43.5 18.2 -0.3 18.2 -0.2 0 3.5 c0 2.4 -8.6 24.9 -25.1 65.8 -13.8 34.2 -25.3 62.8 -25.6 63.5 -0.3 0.6 -2 1.2 -3.8 1.2 -3.2 0 -3.4 -0.3 -5.9 -6.7z"/>
  <path d="M2112.7 385.3 c-0.4 -0.3 -0.7 -7.5 -0.7 -16 l0 -15.3 59 0 59 0 0 16 0 16 -58.3 0 c-32.1 0 -58.7 -0.3 -59 -0.7z"/>
  <path d="M1046.3 379.4 c-1.1 -3 0.9 -24.9 3.2 -33.9 7 -27.9 26.4 -47.8 55.1 -56.8 11.4 -3.6 23.7 -4.7 53.4 -4.7 l26 0 0 16.4 0 16.4 -28.7 0.4 c-32.9 0.4 -35.8 1 -48.6 9.5 -14.5 9.6 -22.1 24.1 -23.4 44.6 l-0.6 9.7 -17.9 0 c-15.3 0 -17.9 -0.2 -18.5 -1.6z"/>
  <path d="M1228.2 300.8 l0.3 -16.3 70 0 70 0 0.3 16.3 0.2 16.2 -70.5 0 -70.5 0 0.2 -16.2z"/>
  <path d="M2112.4 315.7 c-0.2 -0.7 -0.3 -8 -0.2 -16.2 l0.3 -15 64.8 -0.3 64.7 -0.2 0 16.5 0 16.5 -64.5 0 c-51.9 0 -64.7 -0.3 -65.1 -1.3z"/>
 </g>
 <g fill="#ffffff">
  <path d="M0 371.5 l0 -371.5 1170.5 0 1170.5 0 0 371.5 0 371.5 -1170.5 0 -1170.5 0 0 -371.5z m287 177 l0 -15.5 -6.5 0 c-13 0 -35.4 -4 -52.5 -9.4 -41 -12.8 -78.9 -41.8 -103.4 -79.1 -18.4 -28 -29.8 -62.1 -31.3 -93.7 l-0.6 -12.8 -15.5 0 -15.5 0 0.6 14.3 c2.4 55.1 28.4 111 70.3 150.6 38.7 36.6 94.9 60.6 143.2 61 l11.2 0.1 0 -15.5z m0 -64.9 l0 -15.3 -3.1 -0.7 c-1.7 -0.3 -4.8 -0.6 -6.8 -0.6 -6.4 0 -21.3 -3 -30.6 -6.2 -45.5 -15.5 -78.8 -54.5 -87.1 -102.1 -2.3 -12.9 -1.5 -39.8 1.5 -51.7 4.8 -18.9 11.4 -32.9 22.7 -48 12.5 -16.9 28.8 -30.4 47.9 -39.6 16.1 -7.7 26.6 -10.5 49.8 -12.9 l5.7 -0.6 0 -15.5 0 -15.4 -6.5 0 c-13.2 0 -35.8 4.8 -51.7 10.9 -47.9 18.6 -85.2 61.1 -97.7 111.6 -3.3 13.5 -4.4 23.3 -4.4 39.5 0 23.2 2.8 38.4 11 59.3 21.3 54.3 69 92.4 126.8 101.1 5 0.8 12 1.4 15.8 1.5 l6.7 0.1 0 -15.4z m342.5 -43.1 l0 -13 -26.5 -0.6 c-25.5 -0.5 -26.8 -0.6 -33.9 -3.2 -23.6 -8.4 -37.5 -30.6 -35.7 -57 1.6 -24.3 15.4 -42.4 38.3 -50.4 7.5 -2.6 8.7 -2.7 33.1 -3.1 l25.3 -0.4 -0.3 -13.2 -0.3 -13.1 -16 -0.3 c-30.5 -0.6 -49.7 2.4 -65.7 10.3 -9.2 4.6 -14.8 8.8 -22.9 17.2 -15.1 15.6 -22.1 33.7 -22 56.8 0.1 35.9 20.7 65.4 54.1 77.6 13.6 4.9 20.8 5.8 48 5.6 l24.5 -0.2 0 -13z m78.3 -15.7 l0.2 -28.8 17.9 0 17.9 0 2.9 3.8 c1.6 2 10.9 15.1 20.7 29 l17.8 25.2 16.9 0 c9.3 0 16.9 -0.2 16.9 -0.5 0 -0.2 -9.7 -14 -21.5 -30.5 -11.9 -16.6 -21.6 -30.5 -21.8 -31.1 -0.1 -0.5 3.3 -2.4 7.6 -4.3 15.5 -6.8 24.5 -16.9 29.1 -32.5 2 -7 2.1 -21.8 0.1 -29.6 -4.8 -18.1 -19.1 -31.1 -40 -36.1 -5.8 -1.4 -14.3 -1.8 -50.2 -2.1 l-43.3 -0.4 0 13.5 0 13.5 41.8 0.3 c40.7 0.3 41.8 0.4 47.4 2.6 6.5 2.7 12.9 8.9 14.9 14.8 0.7 2.1 1.3 7.1 1.3 10.9 0 8.7 -3.4 15.7 -10 20.4 -9 6.5 -8.8 6.5 -54.1 6.9 l-41.3 0.3 0 42 0 42 14.3 -0.3 14.2 -0.3 0.3 -28.7z m211.2 15.3 l0 -13.8 -4.4 -1.7 c-5.6 -2.2 -12.9 -8.5 -16.2 -14.2 -5.9 -10 -5.8 -9.3 -6.4 -68.4 l-0.5 -54.5 -13.8 -0.3 -13.8 -0.3 0.3 57.3 c0.4 63.7 0.2 61.6 7.5 76.8 5 10.4 15.9 21.3 26.4 26.3 6.1 3 15.8 6.1 20.2 6.6 0.4 0.1 0.7 -6.1 0.7 -13.8z m199 11 c24.7 -6.7 42.8 -20.5 53.8 -41.1 6 -11.2 8.3 -19.7 8.9 -32.7 l0.6 -11.3 -15 0 -15 0 -0.6 8.4 c-1.4 20.4 -11 36.4 -27.1 45.5 -10.5 6 -13.5 6.5 -45.1 7.1 l-29 0.5 -0.3 11.9 c-0.1 6.6 0 12.6 0.3 13.4 0.4 1.1 5.4 1.3 30.3 1 26.9 -0.4 30.5 -0.7 38.2 -2.7z m195 -53.1 l0 -56 -14.5 0 -14.5 0 0 56 0 56 14.5 0 14.5 0 0 -56z m372.5 42.5 l0 -13 -43.2 -0.3 -43.3 -0.2 -0.2 -69.8 -0.3 -69.7 -14 0 -14 0 -0.3 83.3 -0.2 83.2 57.7 -0.2 57.8 -0.3 0 -13z m140.3 -69.7 l-0.3 -83.3 -14.5 0 -14.5 0 -0.3 83.3 -0.2 83.2 15 0 15 0 -0.2 -83.2z m179.5 82.5 c0.6 -1.2 -34.7 -100.4 -48 -134.8 l-12 -31 -15.8 -0.3 c-12.4 -0.2 -15.6 0 -15.3 1 0.2 0.7 13.9 38.3 30.3 83.6 l29.9 82.2 15.2 0 c8.4 0 15.5 -0.3 15.7 -0.7z m233.5 -12.5 l-0.3 -13.3 -61.5 0 -61.5 0 -0.3 11.9 c-0.1 6.6 0 12.6 0.2 13.3 0.4 1 12.3 1.3 62.1 1.3 l61.6 0 -0.3 -13.2z m-1282.7 10.6 c16.6 -4.9 29.5 -15.7 36.7 -30.4 8.5 -17.3 9.4 -25.7 9 -86.5 l-0.3 -47 -14.2 -0.3 -14.3 -0.3 0 51.8 c0 54.8 -0.4 60.4 -4.8 68.9 -3.4 6.6 -8.9 12 -15.7 15.5 l-6.5 3.4 0 13.3 c0 15.2 -0.4 14.7 10.1 11.6z m-669.1 -65.8 c0 -43.2 0.2 -48.5 1.6 -49 0.9 -0.3 22.7 -0.6 48.5 -0.6 l46.9 0 0 -3.7 c0 -14.9 -7.5 -37 -17.2 -51 -4.3 -6.4 -14.4 -16.9 -20.8 -21.7 -36.5 -28 -89.4 -25.7 -123.3 5.4 -19.9 18.2 -31.7 44.5 -31.7 70.4 0 47.8 31.8 87.5 77.5 96.6 5 1 11.1 1.9 13.8 1.9 l4.7 0.1 0 -48.4z m1760.9 -35.4 c13.8 -34.1 25.1 -62.4 25.1 -62.7 0 -0.3 -6.8 -0.4 -15.2 -0.3 l-15.2 0.3 -17.8 43.5 c-9.8 23.9 -17.8 44.2 -17.8 45 0 1.3 1.7 6 11.7 32.4 1.8 4.8 2.8 6.4 3.4 5.4 0.4 -0.8 12.1 -29.4 25.8 -63.6z m179.1 19.8 l0 -13 -56 0 -56 0 0 12.3 c0 6.8 0.3 12.7 0.7 13 0.3 0.4 25.5 0.7 56 0.7 l55.3 0 0 -13z m-1146.7 -1.7 c1.3 -20.5 8.9 -35 23.4 -44.6 12.8 -8.5 15.7 -9.1 48.6 -9.5 l28.7 -0.4 0 -13.4 0 -13.4 -23 0 c-26.8 0 -39.2 1.2 -50.4 4.7 -28.7 9 -48.1 29 -55.1 56.7 -2.3 9.3 -4.2 26.7 -3 28.6 0.4 0.6 6.4 1 15.4 1 l14.8 0 0.6 -9.7z m285.5 -67.5 l-0.3 -13.3 -67 0 -67 0 -0.3 13.3 -0.3 13.2 67.6 0 67.6 0 -0.3 -13.2z m873.2 -0.3 l0 -13.5 -61.7 0.2 -61.8 0.3 -0.3 11.9 c-0.1 6.6 0 12.6 0.2 13.3 0.4 1 12.3 1.3 62.1 1.3 l61.5 0 0 -13.5z"/>
 </g>
</svg>