<svg xmlns="http://www.w3.org/2000/svg" viewBox="0 0 2239 532" width="135" height="32">
	<style>
		tspan { white-space:pre }
		.shp0 { fill: #000000 } 
	</style>
	<g >
		<path class="shp0" d="M217.5 460C171 452.4 129.7 432.2 96.6 400.9C53.7 360.3 28.2 304.6 26.3 247.3L25.7 230L44.2 230L62.7 230L63.3 242.8C64.8 274.4 76.2 308.5 94.6 336.5C119.1 373.8 157 402.8 198 415.6C215.1 421 237.5 425 250.5 425L257 425L257 443.5L257 462L242.8 461.9C234.3 461.8 224 461.1 217.5 460L217.5 460Z" />
		<path class="shp0" d="M228.5 395.4C157.6 384.7 103.1 330.1 91.9 258.5C90.3 248.2 90.3 215.8 91.9 205.5C101.1 147.1 139.4 98.6 192.8 77.9C210.1 71.2 231.3 67 247.5 67L257 67L257 85.4L257 103.9L251.3 104.5C228.1 106.9 217.6 109.7 201.5 117.4C165.9 134.7 140.7 165.9 131 205C128 217 127.2 238.4 129.4 250.7C136.6 292.2 162.8 327.3 200.5 346.2C214 353 235.8 359 247.1 359C249.1 359 252.2 359.3 253.9 359.6L257 360.3L257 378.6L257 397L247.3 396.9C241.9 396.8 233.5 396.2 228.5 395.4L228.5 395.4Z" />
		<path class="shp0" d="M536.8 350.4C490 341.9 462.1 303.3 467.1 254C469 235.1 475.7 219.7 487.8 206.9C509.2 184.1 530.8 177.4 580.5 178.2L599.5 178.5L599.8 194.6L600 210.8L574.8 211.2C550.4 211.6 549.2 211.7 541.7 214.3C520.6 221.6 507.1 237.7 503.9 259.4C502.5 268.9 504.4 279.4 509.4 289.6C515.8 302.4 525.3 310.8 539.1 315.7C546.2 318.3 547.5 318.4 573 318.9L599.5 319.5L599.5 335.5L599.5 351.5L572 351.7C552.2 351.8 542.4 351.4 536.8 350.4L536.8 350.4Z" />
		<path class="shp0" d="M643 307.1L643 262.1L684.3 261.8C729.6 261.4 729.4 261.4 738.4 254.9C753.7 244 750.2 222.1 732 214.8C726.7 212.6 725.2 212.5 684.8 212.2L643 211.9L643 195.4L643 178.9L689.3 179.3C728.1 179.6 736.6 180 742.5 181.4C763.4 186.4 777.7 199.4 782.5 217.5C784.6 225.6 784.5 245.8 782.4 253.1C778.2 267.2 769.4 277.8 756.8 283.8C752.5 285.8 749 287.9 749 288.3C749 288.8 758 301.7 769 317.1C785.8 340.6 789 345.6 789 348.5L789 352L769.1 352L749.2 352L731.4 326.8C721.6 312.9 712.3 299.8 710.7 297.8L707.8 294L692.9 294L678 294L677.8 322.8L677.5 351.5L660.3 351.8L643 352L643 307.1L643 307.1Z" />
		<path class="shp0" d="M875.6 350.4C858.7 346.3 842.8 333.8 835.7 319C828.4 303.7 828.6 306.2 828.2 239.2L827.9 179L844.7 179.2L861.5 179.5L862 234C862.6 293.1 862.5 292.4 868.4 302.4C871.7 308.1 879 314.4 884.6 316.6L889 318.3L889 335.1L889 352L885.3 351.9C883.2 351.9 878.8 351.2 875.6 350.4L875.6 350.4Z" />
		<path class="shp0" d="M1013.5 350.8C1013.2 350 1013.1 342.7 1013.2 334.5L1013.5 319.5L1042.5 319C1074.1 318.4 1077.1 317.9 1087.6 311.9C1103.7 302.8 1113.3 286.8 1114.7 266.4L1115.3 258L1133.3 258L1151.3 258L1150.8 272.3C1150.2 288.5 1148.4 295.7 1141.8 308C1130.8 328.6 1112.7 342.4 1088 349.1C1080.2 351.2 1077 351.4 1046.8 351.8C1019.6 352.1 1013.9 351.9 1013.5 350.8L1013.5 350.8Z" />
		<path class="shp0" d="M1248 293L1248 234L1265.5 234L1283 234L1283 293L1283 352L1265.5 352L1248 352L1248 293Z" />
		<path class="shp0" d="M1534.2 265.8L1534.5 179.5L1551.5 179.5L1568.5 179.5L1568.8 249.2L1569 319L1612.3 319.2L1655.5 319.5L1655.5 335.5L1655.5 351.5L1594.7 351.8L1534 352L1534.2 265.8Z" />
		<path class="shp0" d="M1760.2 265.8L1760.5 179.5L1778 179.5L1795.5 179.5L1795.8 265.8L1796 352L1778 352L1760 352L1760.2 265.8Z" />
		<path class="shp0" d="M1908.2 269C1890.1 219.4 1878 184.6 1878 182.5L1878 179L1896.6 179.2L1915.2 179.5L1927.6 211.5C1944.8 255.9 1976.2 345.3 1975.8 348.7L1975.5 351.5L1956.9 351.8L1938.4 352L1908.2 269Z" />
		<path class="shp0" d="M2079.4 350.7C2079.2 350 2079.1 342.7 2079.2 334.5L2079.5 319.5L2144 319.5L2208.5 319.5L2208.8 335.8L2209 352L2144.5 352C2092.6 352 2079.8 351.7 2079.4 350.7L2079.4 350.7Z" />
		<path class="shp0" d="M910 334.8L910 318.5L916.5 315.1C923.3 311.6 928.8 306.2 932.2 299.6C936.6 291.1 937 285.5 937 230.7L937 179L954.3 179.2L971.5 179.5L971.8 229.5C972.2 293.6 971.4 301.5 962.8 319C953.9 337.2 933.5 351 915.3 351L910 351L910 334.8L910 334.8Z" />
		<path class="shp0" d="M232.5 330C192.5 322 162.7 290.6 156.5 250C150.8 212.8 161.4 180.2 186.7 157C205.1 140.2 227.5 132 255.1 132C284.7 132 308.7 142 327.7 162.3C335.3 170.4 338.7 175.4 343.8 185.6C350.3 198.5 354 213.5 354 227.3L354 234L307.1 234C281.3 234 259.5 234.3 258.6 234.6C257.2 235.1 257 240.4 257 283.6L257 332L249.3 331.9C245 331.9 237.5 331 232.5 330L232.5 330Z" />
		<path class="shp0" d="M1982.6 306.3C1981.2 302.5 1978 294.1 1975.5 287.5C1972.6 279.7 1971 273.9 1971 271C1971 267.4 1974.8 257.2 1988.8 223L2006.6 179.5L2024.8 179.2L2043 179L2043 182.5C2043 184.9 2034.4 207.4 2017.9 248.3C2004.1 282.5 1992.6 311.1 1992.3 311.8C1992 312.4 1990.3 313 1988.5 313C1985.3 313 1985.1 312.7 1982.6 306.3L1982.6 306.3Z" />
		<path class="shp0" d="M2079.7 280.3C2079.3 280 2079 272.8 2079 264.3L2079 249L2138 249L2197 249L2197 265L2197 281L2138.7 281C2106.6 281 2080 280.7 2079.7 280.3Z" />
		<path class="shp0" d="M1013.3 274.4C1012.2 271.4 1014.2 249.5 1016.5 240.5C1023.5 212.6 1042.9 192.7 1071.6 183.7C1083 180.1 1095.3 179 1125 179L1151 179L1151 195.4L1151 211.8L1122.3 212.2C1089.4 212.6 1086.5 213.2 1073.7 221.7C1059.2 231.3 1051.6 245.8 1050.3 266.3L1049.7 276L1031.8 276C1016.5 276 1013.9 275.8 1013.3 274.4L1013.3 274.4Z" />
		<path class="shp0" d="M1195.2 195.8L1195.5 179.5L1265.5 179.5L1335.5 179.5L1335.8 195.8L1336 212L1265.5 212L1195 212L1195.2 195.8Z" />
		<path class="shp0" d="M2079.4 210.7C2079.2 210 2079.1 202.7 2079.2 194.5L2079.5 179.5L2144.3 179.2L2209 179L2209 195.5L2209 212L2144.5 212C2092.6 212 2079.8 211.7 2079.4 210.7L2079.4 210.7Z" />
	</g>
</svg>