<svg version="1.2" baseProfile="tiny-ps" xmlns="http://www.w3.org/2000/svg" viewBox="0 0 1495 355" width="712" height="169">
	<title>new-socbay-svg</title>
	<style>
		tspan { white-space:pre }
		.shp0 { fill: #cc0000 } 
		.shp1 { fill: #000000 } 
	</style>
	<g id="Layer">
		<path id="Layer" class="shp0" d="M90.1 128L90.1 163.5L99.1 154C104.1 148.8 111.5 140.8 115.7 136.2L123.2 128L111.8 115.7C105.5 109 98 101 95.2 98L90.1 92.5L90.1 128Z" />
		<path id="Layer" class="shp0" d="M56.5 140C70.2 153.7 81.6 165 81.8 165C82.2 165 81 128.7 80.4 122.4L79.9 117.2L64.2 116.6C55.6 116.3 44.7 115.8 40 115.5L31.5 115L56.5 140Z" />
		<path id="Layer" class="shp0" d="M122.5 143L97.5 168.1L119.5 167.5C131.6 167.1 142.5 166.7 143.8 166.4C145.8 166 146 165.4 146.1 158.2C146.2 154 146.5 143.2 146.9 134.2C147.2 125.3 147.5 118 147.5 118C147.5 118 136.2 129.3 122.5 143Z" />
		<path id="Layer" fill-rule="evenodd" class="shp1" d="M988 125C988.8 125 1061 220.5 1061 221.4C1061 221.7 1055.8 222 1049.5 222L1038.1 222L1017.5 195L958.4 195L948.4 208.5L938.5 222L926.6 222C915.4 222 914.8 221.9 916.2 220.2C917 219.3 933.3 197.5 952.5 171.7C971.6 146 987.6 125 988 125ZM988.2 156.3C987.8 156.2 984.3 160.5 980.3 165.8L973.1 175.5L980.6 175.8C984.7 176 991.3 176 995.4 175.8L1002.8 175.5L995.9 166C992.1 160.8 988.6 156.4 988.2 156.3Z" />
		<path id="Layer" class="shp1" d="M270.4 131.3C254.7 135.7 246.7 150.6 251.5 166.6C253.5 173.6 258.6 179.1 266.2 182.6L272.5 185.5L313 186C361.1 186.6 360 186.3 359.1 197C358.6 202.7 360.4 202.5 303.2 203L250.5 203.5L250.5 213L250.5 222.5L300.5 222.8C332.8 222.9 352.3 222.7 355.6 222C363.3 220.4 370.9 215.4 374.5 209.6C377.3 205 377.5 204 377.5 195.1C377.5 186.4 377.2 185 374.7 180.8C371.6 175.4 368 172.6 360.1 169.4C354.6 167.1 353.9 167 316.2 167C275.5 167 272.5 166.7 270.1 162.2C268.7 159.6 268.7 155.5 270 153C272 149.3 275.7 149 327.6 149L378 149L378 139.5L378 130L326.3 130.1C290.5 130.2 273.2 130.6 270.4 131.3Z" />
		<path id="Layer" class="shp1" d="M1065.2 139.7C1065.5 148.1 1066 150.4 1068.7 156C1072 163.1 1077.8 169.5 1085.5 174.6C1091.1 178.3 1105.9 183.5 1113.8 184.6L1119 185.3L1119 203.6L1119 222L1128.5 222L1138 222L1138 203.6L1138 185.3L1142.8 184.6C1164.3 181.8 1182.2 170.8 1189.2 156.2C1191.9 150.5 1192.4 148.1 1192.8 139.8L1193.3 130L1183.7 130L1174.2 130L1173.9 138.4C1173.5 146.1 1173.2 147.2 1170.4 150.7C1162.9 160 1153.2 164.4 1136.3 166.1C1113.3 168.4 1092.5 161.3 1086.3 149C1084.5 145.6 1084 142.9 1084 137.3L1084 130L1074.4 130L1064.8 130L1065.2 139.7Z" />
		<path id="Layer" fill-rule="evenodd" class="shp1" d="M517.3 132C531.7 133.1 538.3 135.7 542.9 142C547.5 148.4 548.2 153.7 547.8 179.5C547.5 201.2 547.4 202.8 545.2 207.3C540.7 216.4 533.5 220.2 517.5 222C506.1 223.2 457.9 223.3 448.1 222C438.1 220.7 430.9 217.3 427.1 212C421.9 204.7 421.5 202.5 421.5 177C421.5 154.4 421.6 153.3 423.9 148.2C425.2 145.3 428 141.4 430.2 139.6C436.5 134.1 443.3 132.8 468.5 132C501.9 131 504.6 131 517.3 132ZM465.9 150.9C444 151.6 441.6 152.3 440.5 158.2C440.1 160 440 170 440.2 180.3C440.5 198.5 440.6 199.2 442.8 201C446.2 203.8 454.2 204.2 489.6 203.8C522.6 203.4 525.9 203 528 199.1C529.4 196.4 530.5 171.4 529.6 161.7C528.9 155 528.5 153.7 526.4 152.3C523.4 150.4 498.3 149.8 465.9 150.9Z" />
		<path id="Layer" fill-rule="evenodd" class="shp1" d="M812 131C867.3 131 868 131.1 877.2 136.9C888.7 144.2 892.4 162.8 884.6 174.3C882.3 177.6 882.3 177.7 884.2 179.9C887.2 183.7 889.3 192.6 888.6 198.7C887.4 209.3 882.1 216.4 872 220.9C867.7 222.9 865.6 223 813.8 223L760 223L760 177.7C760 152.7 760.3 132 760.7 131.7C761 131.3 784.1 131 812 131ZM819.7 150C787.3 150 779.8 150.2 779.4 151.3C779.1 152.1 779 156 779.2 160.1L779.5 167.5L820 167.8C845.9 168 861.8 167.7 864.1 167.1C866.4 166.4 868.1 165.1 868.8 163.5C871.5 157.7 869.3 152.7 863.2 151C860.9 150.4 844 150 819.7 150ZM865.2 187.5L779 186.9L779 204L865.1 204L867.5 201.5C870.7 198.4 870.7 194 867.6 190.3L865.2 187.5Z" />
		<path id="Layer" fill-rule="evenodd" class="shp1" d="M1454.5 132C1468.6 133.2 1473.8 135 1478.9 140.5C1484.9 147 1485.5 150.2 1485.5 176.5C1485.5 202.5 1484.7 207 1478.5 213.3C1471.1 221 1458.4 223 1418.8 223C1381.9 223 1374.8 221.8 1367 214.2C1360.8 208.1 1359.3 203.1 1358.4 185.2C1357.2 158 1360.4 144.2 1369.6 138.1C1376.1 133.9 1382.6 132.8 1406.5 132C1439 131 1442.7 131 1454.5 132ZM1381.3 152.8C1380 153.5 1378.7 155.3 1378.3 156.8C1376.9 161.5 1377.3 197.2 1378.7 199.7C1381 203.6 1388.1 204.2 1425.4 203.8C1463.5 203.3 1464.3 203.2 1466 197.1C1467.2 192.6 1467.3 158 1466.1 154.7C1465.6 153.4 1464.1 152 1462.8 151.6C1455.9 149.5 1385.4 150.5 1381.3 152.8Z" />
		<path id="Layer" class="shp1" d="M638.8 133.1C624.5 135.2 612.6 140.4 604.2 148.3C597.9 154.4 594.4 160 592.4 167.2C586.1 191 602.1 213.3 630.5 220.5C636.5 222.1 643.5 222.4 677.8 222.7L718 223.1L718 213.6L718 204L680.8 204C652.7 204 641.9 203.6 637 202.6C619.3 198.8 610 190.1 610 177.5C610 165.1 618 157.5 635.7 152.9C642.6 151.2 647 151 680.7 151L718 151L718 141.5L718 132L681.3 132.1C661 132.2 641.9 132.6 638.8 133.1Z" />
		<path id="Layer" class="shp1" d="M1297 177.5L1297 223L1306.5 223L1316 223L1316 177.5L1316 132L1306.5 132L1297 132L1297 177.5Z" />
		<path id="Layer" class="shp0" d="M24.1 156.3L6.7 172.5L24.4 172.8C34.1 172.9 50 172.9 59.7 172.8L77.4 172.5L60 156.2C50.4 147.3 42.3 140 42 140C41.7 140.1 33.7 147.4 24.1 156.3Z" />
		<path id="Layer" class="shp1" d="M85.2 170.2C84.2 171.5 83.7 173.6 83.9 175.7C83.9 176.4 85.1 177.7 86.5 178.6C88.8 180.1 89.2 180.1 91.5 178.6C94.2 176.8 94.9 172.3 92.8 170.2C91.2 168.6 86.5 168.7 85.2 170.2Z" />
		<path id="Layer" class="shp0" d="M99.1 176.3C99.3 176.5 106.5 183.1 115 191.1C123.5 199 131.5 206.4 132.8 207.4L135 209.3L149.2 196C157.1 188.6 165.1 181.1 167 179.3L170.5 176L134.6 176C114.8 176 98.9 176.1 99.1 176.3Z" />
		<path id="Layer" class="shp0" d="M46.8 181.9C38.8 182.3 31.9 182.7 31.6 183C31.1 183.5 29 230.2 29.4 230.7C29.5 230.8 40.8 219.7 54.5 206L79.5 181L70.5 181.2C65.5 181.3 54.9 181.6 46.8 181.9Z" />
		<path id="Layer" class="shp0" d="M95.6 207.5C95.9 220.7 96.3 231.6 96.4 231.7C96.6 231.9 144.5 233.8 144.7 233.6C144.8 233.5 133.7 222.2 119.9 208.5L94.9 183.5L95.6 207.5Z" />
		<path id="Layer" class="shp0" d="M70.5 202.6C61.7 212.1 54.5 220.4 54.5 220.9C54.5 221.4 61.7 229.6 70.5 239.1L86.5 256.3L86.8 238.7C86.9 229 86.9 213.1 86.8 203.2L86.5 185.4L70.5 202.6Z" />
		<path id="Layer" class="shp1" d="M1236 210.5L1236 220.1L1245.3 219.8L1254.5 219.5L1254.8 210.2L1255.1 201L1245.5 201L1236 201L1236 210.5Z" />
	</g>
</svg>