<svg xmlns="http://www.w3.org/2000/svg" viewBox="0 0 1278 304" width="135" height="32">
	<style>
		tspan { white-space:pre }
		.shp0 { fill: #c91d27 } 
		.shp1 { fill: #ffffff } 
	</style>
	<g id="Layer">
		<path id="Layer" class="shp0" d="M84.5 68C54.9 74 33 100.5 33 130.5C33 145.8 39.1 161.9 49.1 173.2C58.8 184.3 75.5 192.9 90.3 194.6L96 195.3L96 188.6L96 182L92.7 182C82.8 182 68.8 175.6 60.5 167.3C51.1 157.9 46.3 147.2 45.3 133.5C43.5 107.9 62.7 84.1 88.5 79.9L96 78.7L96 72.9L96 67L92.3 67.1C90.2 67.2 86.7 67.6 84.5 68Z" />
		<path id="Layer" class="shp1" d="M502.5 87.7C486.4 89.9 469 100.5 461 113C456.6 119.9 453.2 130.1 452.5 139C451.6 148.9 453.8 159.1 459 169.7C463.9 179.7 472.8 188.3 483.4 193.5C494.8 199.1 500.1 200 520.7 200L539.1 200L538.8 191.2L538.5 182.5L520 181.9C499.9 181.3 496.6 180.6 488.5 175C478.3 168 473.5 157.8 473.6 143.5C473.7 126 481.7 114.2 498 107.5C501.6 106.1 506.3 105.5 520.5 105.1L538.5 104.5L538.5 96L538.5 87.5L522 87.4C512.9 87.3 504.2 87.5 502.5 87.7Z" />
		<path id="Layer" class="shp1" d="M735.7 87.7C734.9 89 758.8 155.2 775.7 198.7C776.3 200.1 797 200.6 797 199.2C797 198.8 787.9 173.5 776.7 143L756.5 87.5L746.3 87.2C740.7 87.1 736 87.3 735.7 87.7Z" />
		<path id="Layer" class="shp1" d="M814.3 88.4C814.6 89.1 824.2 104.3 835.7 122.1L856.5 154.5L857 177.5L857.5 200.5L868 200.5L878.5 200.5L878.7 178L879 155.5L857.2 121.5L835.4 87.5L824.6 87.2C815.5 87 813.8 87.2 814.3 88.4Z" />
		<path id="Layer" class="shp1" d="M900.3 90.7C895.4 97 877 123.7 877 124.5C877 125.6 887.1 139 887.9 139C888.9 139 922 89.4 922 88C922 87.4 918.2 87 912.6 87L903.2 87L900.3 90.7Z" />
		<path id="Layer" class="shp1" d="M1082 144L1082 201L1091.5 201C1100.5 201 1101 200.9 1101.5 198.7C1101.8 197.5 1101.9 172 1101.8 142L1101.5 87.5L1091.8 87.2L1082 86.9L1082 144Z" />
		<path id="Layer" class="shp1" d="M243 90.4C238.9 91.6 233.2 93.8 230.3 95.3C222.9 99.1 212.9 108.8 209.1 115.9C205.2 123.3 202 135.5 202 143.2L202 149L212.5 149L223 149L223 143.1C223 130.3 229.1 118.4 239.2 112C247.1 106.9 251.9 106 272.9 106C288.3 106 290.9 105.8 291.4 104.4C291.7 103.5 292 99.5 292 95.4L292 88L271.3 88.1C252.7 88.1 249.7 88.3 243 90.4Z" />
		<path id="Layer" class="shp1" d="M354.5 89.4C335.7 95.4 321.4 110.5 316.5 129.5C314.6 137.1 314.6 150.9 316.5 158.5C321.5 177.5 334.8 191.9 353.2 198.1C363 201.4 363 201.4 363 191C363 184.1 362.7 182 361.6 182C359 182 350.4 176.7 345.8 172.3C343.2 169.7 339.9 165 338.3 161.6C335.7 156 335.5 154.6 335.5 143.5C335.5 132.3 335.7 131.1 338.4 125.6C342.3 117.7 350.2 110 357.1 107.3L362.5 105.3L362.8 96.6C363.1 88.2 363 88 360.8 88.1C359.5 88.1 356.7 88.7 354.5 89.4Z" />
		<path id="Layer" class="shp1" d="M380 96.7L380 105.6L385.6 107.9C396.9 112.7 405.3 124.3 406.9 137.7C409.2 157.2 400.9 173.7 385.3 180.2L380 182.4L380 191.2C380 197.8 380.3 200 381.3 200C385 200 394.3 196.3 400.7 192.4C413 184.8 421.9 172.6 425.5 158.5C427.4 150.9 427.4 136.1 425.5 128.6C423.1 119.6 417.2 109.2 410.6 102.6C404.3 96.3 392.2 89.8 384.3 88.5L380 87.8L380 96.7Z" />
		<path id="Layer" class="shp1" d="M578.2 96.2L578.5 104.5L603 105C629.8 105.6 632.6 106.1 636.9 111.6C638.9 114.1 639.1 115.4 638.8 120.7C638.4 127.7 636.7 130.3 631 132.9C628.2 134.2 622.6 134.6 603 135L578.5 135.5L578.5 143.5L578.5 151.5L606 152C632.1 152.5 633.7 152.6 637.7 154.8C642.8 157.5 645.3 161.9 645.2 167.9C645.2 173.5 642.8 176.8 636.4 180C631.6 182.5 631 182.5 604.7 182.8L577.9 183.1L578.2 191.3L578.5 199.5L605.3 199.8C626.3 200 633.4 199.7 638.5 198.5C650 195.9 658.3 190.3 662.2 182.6C665.2 176.9 665.9 164.5 663.6 158.6C661.5 153.2 654.7 146.7 648.2 143.8C644 142 643.7 141.7 645.4 140.6C649.9 137.9 652.8 134.8 655.5 129.8C658.1 125.2 658.5 123.5 658.5 116.5C658.5 106.4 655.8 100.4 649.1 95.4C640.2 88.8 635.2 88 604.9 88L577.9 88L578.2 96.2Z" />
		<path id="Layer" class="shp1" d="M1196.6 90.5C1179.4 96.6 1166.2 110.8 1161.5 128.6C1159.5 136.2 1159.5 151.7 1161.5 159.3C1166.2 177.3 1180.7 192.7 1197.8 198C1208.2 201.2 1208 201.4 1208 191.2L1208 182.5L1203 180.7C1196.3 178.3 1186.8 169.5 1183.6 162.5C1173.6 141.5 1182.8 114.4 1202.3 107.2L1207.5 105.2L1207.8 96.6C1208.1 88.2 1208 88 1205.8 88C1204.5 88 1200.4 89.1 1196.6 90.5Z" />
		<path id="Layer" class="shp1" d="M1224 96.5L1224 105L1230.3 107.8C1238.4 111.5 1244.4 117.6 1248.3 125.8C1251.3 132.1 1251.5 133.2 1251.5 144C1251.5 154.5 1251.3 156 1248.7 161.6C1245.1 169.4 1237.3 177.1 1229.8 180.4L1224 183L1224 191.6L1224 200.3L1228.3 199.6C1235.9 198.5 1248.6 191.4 1255.6 184.5C1262.9 177.2 1269.1 165.4 1271.1 155.2C1272.7 146.7 1271.7 132.2 1269 124.3C1263.2 107.5 1249.7 94.5 1233.1 89.6C1223.8 86.9 1224 86.8 1224 96.5Z" />
		<path id="Layer" class="shp0" d="M82.6 95.4C67.7 101.7 59 114.6 59 130.4C59 134.4 59.7 139.9 60.5 142.5C62.5 149.2 68.3 157.3 74.2 161.6C79.1 165.2 89 169 93.6 169L96 169L96 150L96 131L115.5 131C137.7 131 136.2 131.8 133.4 121.5C130.6 110.4 123.5 101.6 113.2 96.4C108.4 94 106.2 93.5 98 93.2C89.7 93 87.8 93.2 82.6 95.4Z" />
		<path id="Layer" class="shp1" d="M723.4 115.5C723 116.6 715.3 135.7 706.3 157.9C697.3 180.1 690 198.7 690 199.2C690 199.7 694.6 199.9 700.2 199.8L710.3 199.5L722.2 170.5C728.7 154.6 734 140.8 734 139.9C734 138.3 726.6 118 725 115C724.3 113.7 724 113.8 723.4 115.5Z" />
		<path id="Layer" class="shp0" d="M7.5 137.7C9.6 159.3 17.7 177.2 31.9 192.3C47 208.3 67.1 218.2 87.8 219.7L96 220.3L96 214.3L96 208.3L88.8 207.6C79.7 206.8 65.4 202 57 197C37.2 185.2 22.6 163.1 20.5 141.7C19.4 130.5 19.8 131 12.9 131L6.8 131L7.5 137.7Z" />
		<path id="Layer" class="shp1" d="M271 144.8C271 150.2 268.4 159.5 265.4 164.5C262 170.3 256 175.7 249.1 178.9C243.8 181.4 242.5 181.5 223 182L202.5 182.5L202.2 191.2L201.9 200L221.7 200C243.8 200 250.1 199 260.3 193.9C278.6 184.9 289.6 168.5 291.5 147.7L292.1 141L281.5 141L271 141L271 144.8Z" />
	</g>
</svg>