<svg version="1.2" baseProfile="tiny-ps" xmlns="http://www.w3.org/2000/svg" viewBox="0 0 1623 386" width="135" height="32">
	<title>socbay-original</title>
	<style>
		tspan { white-space:pre }
		.shp0 { fill: #000000 } 
		.shp1 { fill: #c91d27 } 
	</style>
	<g id="Layer">
		<path id="Layer" fill-rule="evenodd" class="shp0" d="M1326.5 121.3C1328.1 121.9 1428 255.3 1427.4 256.2C1427.1 256.6 1420.1 257 1411.9 257C1394.2 257 1397.9 259.5 1380 235.6L1367.5 219L1285.2 219L1272 236.7C1264.7 246.5 1258.1 255 1257.3 255.7C1255.6 257 1226.5 257.5 1225.6 256.2C1225.3 255.8 1227 252.9 1229.3 249.9C1231.7 246.9 1254.3 216.7 1279.5 182.7C1304.8 148.8 1325.9 121.1 1326.5 121.3ZM1326.5 165.1C1325.3 165 1305.5 190.8 1306.2 191.5C1306.5 191.8 1315.8 191.9 1326.9 191.8L1347 191.5L1337.3 178.3C1331.9 171 1327 165.1 1326.5 165.1Z" />
		<path id="Layer" class="shp0" d="M1433 138.7C1433 150.9 1434.5 157.6 1439.1 166.7C1448.8 185.8 1473.3 200.8 1499.3 203.6C1502.7 204 1506.2 204.6 1507 205.1C1508.3 205.7 1508.5 209.7 1508.5 231.2L1508.5 256.5L1521 256.5L1533.5 256.5L1534.2 252.5C1534.6 250.3 1534.9 238.7 1534.9 226.8L1535 205.1L1538.8 204.5C1565 200.2 1579 194.3 1592.1 182.2C1599.7 175.2 1605.2 167.1 1608.1 158.2C1609.9 152.9 1610.4 149.1 1610.4 140L1610.5 128.5L1598.6 128.2C1592 128.1 1586.3 128.3 1585.8 128.8C1585.3 129.3 1584.8 133.7 1584.7 138.6C1584.3 151.7 1580 159.8 1569.4 167.1C1551.8 179.2 1514 182.6 1489 174.4C1479.1 171.1 1468.4 163.9 1464.3 157.7C1460.1 151.4 1459 147.3 1459 137.4C1459 130.9 1458.7 129.1 1457.4 128.6C1456.5 128.3 1450.7 128 1444.4 128L1433 128L1433 138.7Z" />
		<path id="Layer" class="shp0" d="M328.3 130.5C313.4 135.1 303.5 147.7 302.3 163.3C300.9 182 310.4 196.5 328.5 203.2C334.4 205.3 335.8 205.4 390 205.9C450.9 206.6 448.5 206.3 452.6 212.5C455 216.2 454 223.5 450.6 226.9L448 229.5L375 229.8L302 230L302 243.6L302 257.1L375.8 256.8L449.5 256.5L455.2 254.2C467.3 249.3 474.7 241.9 478 231.1C483.2 214.7 477.9 197.3 465 187.7C462.7 186.1 457.7 183.6 453.7 182.2L446.5 179.7L393.5 179.3C364.1 179.1 338.9 178.5 336.9 178C329.7 176 326.4 168.9 329.4 161.7C332.2 154.8 329.6 155 409 155L480 155L480 142L480 129L406.3 129.1C348.2 129.1 331.6 129.4 328.3 130.5Z" />
		<path id="Layer" fill-rule="evenodd" class="shp0" d="M674.5 131C699.7 133.1 710.7 140.7 714.5 158.5C716.3 167 716.6 210.7 714.9 222.7C712.4 240.7 703.1 250.7 685.1 254.6C674.1 257 621 258.6 595.2 257.2C566.4 255.7 558.5 253.5 549.5 244.6C541.6 236.6 539 224.7 539 195.9C539 175.4 540.4 160.6 543.1 153.4C545.8 146.2 553.1 138.8 560.3 136.2C569.8 132.6 577.1 131.8 606 131.1C650.1 130 661.6 130 674.5 131ZM575.9 158.9C567.6 160.7 567.1 161.2 565.9 171.5C564.6 182.3 565.2 220.3 566.8 224.2C569.3 230.3 576.5 231.2 623.9 231.1C660.7 231 676.8 230.1 683.6 227.9C689.1 226.2 689.5 223.8 689.5 192C689.5 171.4 689.2 162.9 688.3 161.4C687.5 160.1 685.3 158.8 682.4 158.1C672.6 155.6 588.2 156.2 575.9 158.9Z" />
		<path id="Layer" fill-rule="evenodd" class="shp0" d="M1082.2 130C1163.2 130 1161.2 129.8 1172.8 137.9C1179.6 142.7 1183.2 147.3 1186.1 155.1C1190.1 165.5 1188.3 181.8 1182.4 190.5C1180.3 193.6 1180 194.7 1180.9 196C1181.5 196.8 1183.3 200 1184.8 203C1187.3 208 1187.5 209.5 1187.5 220C1187.5 230.7 1187.3 231.9 1184.6 237.3C1179.5 247.3 1169.6 254.5 1157.5 257C1154.3 257.7 1127.5 257.9 1081.5 257.8L1010.5 257.5L1010.2 195C1010.1 160.6 1010.2 131.9 1010.5 131.2C1010.8 130.3 1026.1 130 1082.2 130ZM1092.8 156L1036.9 156L1037.2 168.2L1037.5 180.5L1092.5 180.8C1130.5 181 1149.1 180.8 1152.7 180C1159.5 178.5 1162 175.5 1162 169C1162 163 1159.5 159.7 1153.3 157.6C1149.3 156.2 1141.3 156 1092.8 156ZM1093.1 207L1036.9 207L1037.2 219.2L1037.5 231.5L1093 231.8C1140.2 232 1149.2 231.8 1153.7 230.5C1160.2 228.6 1162 226.2 1162 219.4C1162 213.3 1159.4 210 1153.2 208.2C1150.4 207.3 1133 207 1093.1 207Z" />
		<path id="Layer" class="shp0" d="M843.5 132.5C831.5 134.2 826.3 135.5 817 139.1C797.5 146.6 784 159.7 777.8 177.2C775.1 184.8 774.7 200.6 776.9 208.5C785.2 237.8 811.8 254.3 855.5 257.1C872.3 258.2 950.4 258 951.5 256.8C951.9 256.5 951.8 250.6 951.5 243.8L950.8 231.5L910.9 231.9C887.3 232.1 865.1 231.8 856.6 231.1C828.7 229 812 221.5 804.5 207.9C801.9 203.2 801.6 201.5 801.5 194.5C801.5 187.8 801.9 185.7 804.2 181.5C810.7 169 825 161.2 847.5 158C851.4 157.5 876 157 902.6 157L950.8 157L951.5 145.1C951.9 138.5 951.9 132.7 951.5 132.1C950.5 130.5 855.3 130.8 843.5 132.5Z" />
		<path id="Layer" class="shp1" d="M133.54 126.66C133.65 166.72 133.88 176.97 135.05 175.46C135.86 174.41 145.88 163.46 157.41 151.23C168.94 138.89 178.37 127.82 178.37 126.66C178.37 125.5 175.46 121.54 171.97 117.69C145.41 89.16 140.29 83.69 137.15 80.08L133.54 76L133.54 126.66ZM50.85 109.07C50.85 109.42 66.57 125.5 85.9 144.71L120.84 179.65L120.03 150.53C119.68 134.46 118.98 119.09 118.51 116.18L117.81 110.94L98.02 110.12C55.04 108.49 50.85 108.38 50.85 109.07ZM179.54 147.86L144.6 183.14L149.61 183.49C155.66 183.96 211.56 181.74 212.26 181.05C212.96 180.46 215.41 116.88 214.82 114.43C214.59 113.27 201.78 125.5 179.54 147.86ZM57.72 149.14C54.81 151.81 45.61 160.32 37.34 168.12C29.07 175.81 20.22 184.07 17.66 186.4L13 190.6L63.66 190.6L114.32 190.6L107.33 184.07C103.49 180.46 93.36 171.03 84.97 163.11C70.41 149.37 64.36 144.13 63.43 144.13C63.31 144.13 60.63 146.34 57.72 149.14ZM127.48 186.75C124.92 188.03 124.22 189.31 124.22 192.46C124.22 197.47 126.78 200.03 131.79 200.03C136.33 200.03 138.19 197.7 138.19 191.99C138.19 189.2 137.38 188.03 134.7 186.64C130.74 184.54 131.44 184.54 127.48 186.75ZM152.75 202.12C171.85 220.06 190.48 237.41 193.63 239.97L197.24 243.12L200.27 240.44C206.32 235.08 246.5 197.23 246.5 196.88C246.5 196.65 224.14 196.53 196.77 196.53L146.93 196.53L152.75 202.12ZM112.46 202.82C112.22 203.06 97.9 203.64 80.55 204.1C63.31 204.57 48.87 205.15 48.52 205.39C47.94 206.08 46.42 241.95 46.31 260.01L46.19 273.98L81.13 239.04C100.34 219.83 116.07 203.76 116.07 203.29C116.07 202.36 113.39 202.01 112.46 202.82ZM139.82 213.07C140.17 216.45 140.87 231.94 141.22 247.43L142.04 275.49L147.98 276.19C151.24 276.54 166.73 277.12 182.45 277.59L210.98 278.29L175.46 242.65C155.9 223.09 139.71 207.02 139.47 207.02C139.24 207.02 139.36 209.81 139.82 213.07ZM120.03 217.85C116.18 221.92 105.93 232.99 97.08 242.42C88.23 251.85 81.13 260.01 81.36 260.59C81.59 261.17 87.77 268.04 95.1 275.96C102.44 283.88 112.46 294.59 117.23 299.72C122.01 304.96 126.31 309.27 126.9 309.38C127.36 309.38 127.71 287.26 127.71 260.01C127.71 232.75 127.48 210.51 127.25 210.51C127.01 210.51 123.75 213.77 120.03 217.85Z" />
	</g>
</svg>