<svg xmlns="http://www.w3.org/2000/svg" viewBox="0 0 2341 743" width="2341" height="743">
	<style>
		tspan { white-space:pre }
		.shp0 { fill: #000000 } 
	</style>
	<g >
		<path class="shp0" d="M250.5 565C204 557.4 162.7 537.2 129.6 505.9C86.7 465.3 61.2 409.6 59.3 352.3L58.7 335L77.2 335L95.7 335L96.3 347.8C97.8 379.4 109.2 413.5 127.6 441.5C152.1 478.8 190 507.8 231 520.6C248.1 526 270.5 530 283.5 530L290 530L290 548.5L290 567L275.8 566.9C267.3 566.8 257 566.1 250.5 565L250.5 565Z" />
		<path class="shp0" d="M261.5 500.4C190.6 489.7 136.1 435.1 124.9 363.5C123.3 353.2 123.3 320.8 124.9 310.5C134.1 252.1 172.4 203.6 225.8 182.9C243.1 176.2 264.3 172 280.5 172L290 172L290 190.4L290 208.9L284.3 209.5C261.1 211.9 250.6 214.7 234.5 222.4C198.9 239.7 173.7 270.9 164 310C161 322 160.2 343.4 162.4 355.7C169.6 397.2 195.8 432.3 233.5 451.2C247 458 268.8 464 280.1 464C282.1 464 285.2 464.3 286.9 464.6L290 465.3L290 483.6L290 502L280.3 501.9C274.9 501.8 266.5 501.2 261.5 500.4L261.5 500.4Z" />
		<path class="shp0" d="M569.8 455.4C523 446.9 495.1 408.3 500.1 359C502 340.1 508.7 324.7 520.8 311.9C542.2 289.1 563.8 282.4 613.5 283.2L632.5 283.5L632.8 299.6L633 315.8L607.8 316.2C583.4 316.6 582.2 316.7 574.7 319.3C553.6 326.6 540.1 342.7 536.9 364.4C535.5 373.9 537.4 384.4 542.4 394.6C548.8 407.4 558.3 415.8 572.1 420.7C579.2 423.3 580.5 423.4 606 423.9L632.5 424.5L632.5 440.5L632.5 456.5L605 456.7C585.2 456.8 575.4 456.4 569.8 455.4L569.8 455.4Z" />
		<path class="shp0" d="M676 412.1L676 367.1L717.3 366.8C762.6 366.4 762.4 366.4 771.4 359.9C786.7 349 783.2 327.1 765 319.8C759.7 317.6 758.2 317.5 717.8 317.2L676 316.9L676 300.4L676 283.9L722.3 284.3C761.1 284.6 769.6 285 775.5 286.4C796.4 291.4 810.7 304.4 815.5 322.5C817.6 330.6 817.5 350.8 815.4 358.1C811.2 372.2 802.4 382.8 789.8 388.8C785.5 390.8 782 392.9 782 393.3C782 393.8 791 406.7 802 422.1C818.8 445.6 822 450.6 822 453.5L822 457L802.1 457L782.2 457L764.4 431.8C754.6 417.9 745.3 404.8 743.7 402.8L740.8 399L725.9 399L711 399L710.8 427.8L710.5 456.5L693.3 456.8L676 457L676 412.1L676 412.1Z" />
		<path class="shp0" d="M908.6 455.4C891.7 451.3 875.8 438.8 868.7 424C861.4 408.7 861.6 411.2 861.2 344.2L860.9 284L877.7 284.2L894.5 284.5L895 339C895.6 398.1 895.5 397.4 901.4 407.4C904.7 413.1 912 419.4 917.6 421.6L922 423.3L922 440.1L922 457L918.3 456.9C916.2 456.9 911.8 456.2 908.6 455.4L908.6 455.4Z" />
		<path class="shp0" d="M1046.5 455.8C1046.2 455 1046.1 447.7 1046.2 439.5L1046.5 424.5L1075.5 424C1107.1 423.4 1110.1 422.9 1120.6 416.9C1136.7 407.8 1146.3 391.8 1147.7 371.4L1148.3 363L1166.3 363L1184.3 363L1183.8 377.3C1183.2 393.5 1181.4 400.7 1174.8 413C1163.8 433.6 1145.7 447.4 1121 454.1C1113.2 456.2 1110 456.4 1079.8 456.8C1052.6 457.1 1046.9 456.9 1046.5 455.8L1046.5 455.8Z" />
		<path class="shp0" d="M1281 398L1281 339L1298.5 339L1316 339L1316 398L1316 457L1298.5 457L1281 457L1281 398Z" />
		<path class="shp0" d="M1567.2 370.8L1567.5 284.5L1584.5 284.5L1601.5 284.5L1601.8 354.2L1602 424L1645.3 424.2L1688.5 424.5L1688.5 440.5L1688.5 456.5L1627.7 456.8L1567 457L1567.2 370.8Z" />
		<path class="shp0" d="M1793.2 370.8L1793.5 284.5L1811 284.5L1828.5 284.5L1828.8 370.8L1829 457L1811 457L1793 457L1793.2 370.8Z" />
		<path class="shp0" d="M1941.2 374C1923.1 324.4 1911 289.6 1911 287.5L1911 284L1929.6 284.2L1948.2 284.5L1960.6 316.5C1977.8 360.9 2009.2 450.3 2008.8 453.7L2008.5 456.5L1989.9 456.8L1971.4 457L1941.2 374Z" />
		<path class="shp0" d="M2112.4 455.7C2112.2 455 2112.1 447.7 2112.2 439.5L2112.5 424.5L2177 424.5L2241.5 424.5L2241.8 440.8L2242 457L2177.5 457C2125.6 457 2112.8 456.7 2112.4 455.7L2112.4 455.7Z" />
		<path class="shp0" d="M943 439.8L943 423.5L949.5 420.1C956.3 416.6 961.8 411.2 965.2 404.6C969.6 396.1 970 390.5 970 335.7L970 284L987.3 284.2L1004.5 284.5L1004.8 334.5C1005.2 398.6 1004.4 406.5 995.8 424C986.9 442.2 966.5 456 948.3 456L943 456L943 439.8L943 439.8Z" />
		<path class="shp0" d="M265.5 435C225.5 427 195.7 395.6 189.5 355C183.8 317.8 194.4 285.2 219.7 262C238.1 245.2 260.5 237 288.1 237C317.7 237 341.7 247 360.7 267.3C368.3 275.4 371.7 280.4 376.8 290.6C383.3 303.5 387 318.5 387 332.3L387 339L340.1 339C314.3 339 292.5 339.3 291.6 339.6C290.2 340.1 290 345.4 290 388.6L290 437L282.3 436.9C278 436.9 270.5 436 265.5 435L265.5 435Z" />
		<path class="shp0" d="M2015.6 411.3C2014.2 407.5 2011 399.1 2008.5 392.5C2005.6 384.7 2004 378.9 2004 376C2004 372.4 2007.8 362.2 2021.8 328L2039.6 284.5L2057.8 284.2L2076 284L2076 287.5C2076 289.9 2067.4 312.4 2050.9 353.3C2037.1 387.5 2025.6 416.1 2025.3 416.8C2025 417.4 2023.3 418 2021.5 418C2018.3 418 2018.1 417.7 2015.6 411.3L2015.6 411.3Z" />
		<path class="shp0" d="M2112.7 385.3C2112.3 385 2112 377.8 2112 369.3L2112 354L2171 354L2230 354L2230 370L2230 386L2171.7 386C2139.6 386 2113 385.7 2112.7 385.3Z" />
		<path class="shp0" d="M1046.3 379.4C1045.2 376.4 1047.2 354.5 1049.5 345.5C1056.5 317.6 1075.9 297.7 1104.6 288.7C1116 285.1 1128.3 284 1158 284L1184 284L1184 300.4L1184 316.8L1155.3 317.2C1122.4 317.6 1119.5 318.2 1106.7 326.7C1092.2 336.3 1084.6 350.8 1083.3 371.3L1082.7 381L1064.8 381C1049.5 381 1046.9 380.8 1046.3 379.4L1046.3 379.4Z" />
		<path class="shp0" d="M1228.2 300.8L1228.5 284.5L1298.5 284.5L1368.5 284.5L1368.8 300.8L1369 317L1298.5 317L1228 317L1228.2 300.8Z" />
		<path class="shp0" d="M2112.4 315.7C2112.2 315 2112.1 307.7 2112.2 299.5L2112.5 284.5L2177.3 284.2L2242 284L2242 300.5L2242 317L2177.5 317C2125.6 317 2112.8 316.7 2112.4 315.7L2112.4 315.7Z" />
	</g>
</svg>