<svg xmlns="http://www.w3.org/2000/svg" viewBox="0 0 712 169" width="712" height="169">
	<style>
		tspan { white-space:pre }
		.shp0 { fill: #333333 } 
		.shp1 { fill: #ffffff } 
		.shp2 { fill: #ed2a26 } 
		.shp3 { fill: #da1f27 } 
		.shp4 { fill: #af1f24 } 
		.shp5 { fill: #c72127 } 
	</style>
	<g id="Layer">
		<path id="Layer" class="shp0" d="M262.6 138.8L244.2 138.8C235.3 138.8 228.4 136.4 223.6 131.7C218.8 127 216.3 120.2 216.3 111.3L216.3 57.8C216.3 48.9 218.7 42.1 223.6 37.4C228.4 32.7 235.3 30.3 244.2 30.3L262.6 30.3C271.4 30.3 278.2 32.7 283.1 37.5C288 42.3 290.4 49.1 290.4 57.8L290.4 65.7C290.4 68.2 289.2 69.4 286.7 69.4L272.5 69.4C270.1 69.4 269 68.2 269 65.7L269 58.8C269 55.2 268.2 52.6 266.7 51.1C265.2 49.6 262.6 48.8 259 48.8L247.5 48.8C244 48.8 241.5 49.6 240 51.1C238.5 52.6 237.7 55.2 237.7 58.8L237.7 110.3C237.7 113.9 238.5 116.5 240 118C241.5 119.5 244 120.3 247.5 120.3L259 120.3C262.6 120.3 265.2 119.5 266.7 118C268.2 116.5 269 113.9 269 110.3L269 103.4C269 100.9 270.2 99.7 272.5 99.7L286.7 99.7C289.2 99.7 290.4 100.9 290.4 103.4L290.4 111.3C290.4 120.1 288 126.9 283.1 131.6C278.2 136.5 271.4 138.8 262.6 138.8Z" />
		<path id="Layer" class="shp0" d="M338.2 138.8L332.6 138.8C323.9 138.8 317.4 136.4 312.9 131.7C308.5 127 306.2 120.2 306.2 111.3L306.2 56.3C306.2 53.9 307.4 52.8 309.7 52.8L324 52.8C326.4 52.8 327.5 54 327.5 56.3L327.5 110.3C327.5 113.9 328.3 116.5 329.8 118C331.3 119.5 333.8 120.3 337.3 120.3L343.5 120.3C351.3 120.3 355.1 116 355.1 107.5L355.1 56.4C355.1 54 356.3 52.9 358.6 52.9L372.8 52.9C375.3 52.9 376.5 54.1 376.5 56.4L376.5 135.4C376.5 137.8 375.3 138.9 372.8 138.9L359 138.9C356.6 138.9 355.5 137.7 355.5 135.4L355.5 129.8L354.8 129.8C353.6 132.8 351.4 135.1 348.2 136.6C345 138.1 341.7 138.8 338.2 138.8Z" />
		<path id="Layer" class="shp0" d="M413.3 138.8L399 138.8C396.6 138.8 395.5 137.6 395.5 135.3L395.5 56.3C395.5 53.9 396.7 52.8 399 52.8L413.3 52.8C415.7 52.8 416.8 54 416.8 56.3L416.8 62L417.5 62C418.7 59 420.9 56.7 424.1 55.1C427.2 53.5 430.6 52.7 434.1 52.7L440.2 52.7C442.5 52.7 443.6 53.9 443.6 56.2L443.6 68C443.6 69.3 443.3 70.3 442.8 70.8C442.3 71.3 441.4 71.5 440.2 71.4L428.6 71.4C420.8 71.4 417 75.8 417 84.6L417 135.4C416.9 137.7 415.7 138.8 413.3 138.8Z" />
		<path id="Layer" class="shp0" d="M486.9 138.8L454.8 138.8C452.5 138.8 451.4 137.6 451.4 135.3L451.4 124.5C451.4 123.3 451.6 122.4 452.1 121.9C452.5 121.4 453.5 121.1 454.8 121.1L483 121.1C488.5 121.1 491.3 119.4 491.3 116L491.3 115.2C491.3 112.5 489 109.9 484.4 107.4L467.7 98.1C462 95.2 457.7 92 455 88.6C452.3 85.2 450.9 80.9 450.9 75.6C450.9 67.7 453 61.9 457.1 58.2C461.3 54.5 467.8 52.6 476.7 52.6L505 52.6C507.2 52.6 508.4 53.8 508.4 56.1L508.4 67.1C508.4 68.3 508.2 69.2 507.7 69.7C507.2 70.2 506.3 70.5 505 70.5L481.5 70.5C476 70.5 473.2 71.9 473.2 74.7L473.2 75.5C473.2 78 475.6 80.5 480.5 83.1L497.5 93.2C503.3 96.4 507.5 99.6 509.8 102.9C512.2 106.2 513.3 110.6 513.3 116C513.4 131.3 504.6 138.8 486.9 138.8Z" />
		<path id="Layer" class="shp0" d="M559.3 138.8L553.7 138.8C545 138.8 538.5 136.4 534 131.7C529.6 127 527.3 120.2 527.3 111.3L527.3 56.3C527.3 53.9 528.5 52.8 530.8 52.8L545.1 52.8C547.5 52.8 548.6 54 548.6 56.3L548.6 110.3C548.6 113.9 549.4 116.5 550.9 118C552.4 119.5 554.9 120.3 558.4 120.3L564.6 120.3C572.4 120.3 576.2 116 576.2 107.5L576.2 56.4C576.2 54 577.4 52.9 579.7 52.9L593.9 52.9C596.4 52.9 597.6 54.1 597.6 56.4L597.6 135.4C597.6 137.8 596.4 138.9 593.9 138.9L580 138.9C577.6 138.9 576.5 137.7 576.5 135.4L576.5 129.8L575.8 129.8C574.6 132.8 572.4 135.1 569.2 136.6C566.1 138.1 562.8 138.8 559.3 138.8Z" />
		<path id="Layer" class="shp0" d="M649.1 138.8L617 138.8C614.7 138.8 613.6 137.6 613.6 135.3L613.6 124.5C613.6 123.3 613.8 122.4 614.3 121.9C614.7 121.4 615.7 121.1 617 121.1L645.2 121.1C650.7 121.1 653.5 119.4 653.5 116L653.5 115.2C653.5 112.5 651.2 109.9 646.6 107.4L629.9 98.1C624.2 95.2 619.9 92 617.2 88.6C614.5 85.2 613.1 80.9 613.1 75.6C613.1 67.7 615.2 61.9 619.3 58.2C623.5 54.5 630 52.6 638.9 52.6L667.1 52.6C669.3 52.6 670.5 53.8 670.5 56.1L670.5 67.1C670.5 68.3 670.3 69.2 669.8 69.7C669.3 70.2 668.4 70.5 667.1 70.5L643.6 70.5C638.1 70.5 635.3 71.9 635.3 74.7L635.3 75.5C635.3 78 637.7 80.5 642.6 83.1L659.6 93.2C665.4 96.4 669.6 99.6 671.9 102.9C674.3 106.2 675.4 110.6 675.4 116C675.6 131.3 666.7 138.8 649.1 138.8Z" />
	</g>
	<g id="Layer">
		<path id="Layer" class="shp1" d="M78.9 56.3L120 79.9C127.1 83.8 127.1 94.1 120 98L78.9 121.9C71.8 125.8 63.2 120.8 63.2 112.9L63.2 65.4C63.2 57.4 71.8 52.4 78.9 56.3Z" />
		<g id="Layer">
			<path id="Layer" class="shp2" d="M183.9 25.3C183.9 32.8 177.8 38.8 170.4 38.8C162.9 38.8 156.9 32.7 156.9 25.3C156.9 17.8 163 11.8 170.4 11.8C177.9 11.8 183.9 17.9 183.9 25.3Z" />
			<path id="Layer" class="shp2" d="M151.5 7.2C151.4 10.9 148.3 13.8 144.6 13.7C140.9 13.6 138 10.5 138.2 6.8C138.3 3.1 141.4 0.2 145.1 0.3C148.8 0.4 151.7 3.5 151.5 7.2Z" />
			<path id="Layer" class="shp2" d="M15.7 147.5C15.5 151.8 11.9 155.2 7.6 155C3.3 154.8 -0.1 151.2 0.1 146.9C0.3 142.6 3.9 139.2 8.2 139.4C12.5 139.6 15.8 143.2 15.7 147.5Z" />
		</g>
		<g id="Layer">
			<path id="Layer" class="shp3" d="M123.1 70.5C123.1 70.8 123.1 71 123.1 71.3C142.2 81.8 156.8 99.9 162.3 121.9C167.8 109.9 170.3 96.3 169.1 82.2C165.4 39.2 128.2 7.1 85.4 9.3C106.2 22.2 120.9 44.3 123.1 70.5Z" />
			<path id="Layer" class="shp2" d="M10 95.9C10.4 100.2 11.1 104.4 12.1 108.5C23.6 83 48.2 64.4 78 61.8C94.3 60.4 109.8 64 123.1 71.3C123.1 71 123.1 70.8 123.1 70.5C120.8 44.3 106.2 22.1 85.4 9.3C84.5 9.3 83.6 9.4 82.7 9.5C38.8 13.3 6.2 52 10 95.9Z" />
			<path id="Layer" class="shp4" d="M123.2 71.3C126.5 114.9 94.1 153.2 50.4 156.9C49.5 157 48.6 157 47.7 157.1C61.8 165.8 78.6 170.2 96.4 168.7C126.2 166.1 150.8 147.5 162.3 122C156.8 99.9 142.3 81.8 123.2 71.3Z" />
			<path id="Layer" class="shp5" d="M123.2 71.3C109.9 64 94.3 60.4 78.1 61.8C48.3 64.4 23.7 83 12.2 108.5C17.4 129.2 30.4 146.4 47.8 157.1C48.7 157.1 49.6 157 50.5 156.9C94.1 153.2 126.5 114.9 123.2 71.3Z" />
		</g>
		<path id="Layer" class="shp1" d="M77.2 53L123.9 79.9C131.9 84.4 131.9 96 123.9 100.4L77.2 127.5C69.2 132 59.4 126.3 59.4 117.2L59.4 63.2C59.4 54.3 69.2 48.6 77.2 53Z" />
	</g>
</svg>