<svg id="svg" version="1.1" xmlns="http://www.w3.org/2000/svg" xmlns:xlink="http://www.w3.org/1999/xlink" width="400" height="126.95429303716361" viewBox="0, 0, 400,126.95429303716361"><g id="svgg"><path id="path0" d="M0.000 63.417 L 0.000 126.833 200.000 126.833 L 400.000 126.833 400.000 63.417 L 400.000 0.000 200.000 0.000 L 0.000 0.000 0.000 63.417 M49.129 32.542 L 49.083 35.250 47.667 35.361 C 33.534 36.465,23.967 50.166,27.897 63.672 C 30.460 72.479,38.396 79.042,47.167 79.607 C 49.397 79.750,49.182 79.428,49.129 82.546 L 49.083 85.250 47.667 85.202 C 30.552 84.627,18.088 67.608,22.348 50.631 C 25.255 39.049,36.261 30.003,47.629 29.854 L 49.175 29.833 49.129 32.542 M51.250 41.006 C 58.995 42.112,65.038 48.342,65.612 55.812 C 65.673 56.603,65.728 57.288,65.736 57.333 C 65.744 57.379,62.038 57.454,57.500 57.500 L 49.250 57.583 49.167 65.833 L 49.083 74.083 48.500 74.140 C 46.253 74.358,41.593 72.746,39.267 70.946 C 27.108 61.539,32.126 43.250,47.500 40.941 C 48.348 40.814,50.117 40.845,51.250 41.006 M107.630 51.208 L 107.676 53.500 103.796 53.503 C 99.287 53.506,98.252 53.665,96.232 54.660 C 90.565 57.453,89.374 65.852,94.009 70.338 C 96.131 72.391,97.738 72.840,103.375 72.955 L 107.667 73.042 107.667 75.286 L 107.667 77.530 102.792 77.461 C 97.421 77.385,96.547 77.241,93.851 75.990 C 84.537 71.666,83.024 58.582,91.097 52.167 C 94.280 49.637,97.339 48.856,103.917 48.895 L 107.583 48.917 107.630 51.208 M132.364 49.463 C 140.954 51.837,141.746 63.082,133.553 66.338 C 133.020 66.549,132.554 66.745,132.519 66.773 C 132.484 66.800,134.134 69.165,136.186 72.028 C 138.238 74.891,139.942 77.293,139.972 77.367 C 140.003 77.440,138.707 77.500,137.093 77.500 L 134.158 77.500 133.163 76.125 C 132.616 75.369,131.060 73.175,129.706 71.250 L 127.243 67.750 124.124 67.705 L 121.005 67.659 120.961 72.538 L 120.917 77.417 118.458 77.463 L 116.000 77.509 116.000 70.349 L 116.000 63.190 122.958 63.122 C 127.803 63.074,130.119 62.992,130.583 62.849 C 134.727 61.579,135.336 56.169,131.545 54.302 L 130.425 53.750 123.212 53.699 L 116.000 53.647 116.000 51.313 L 116.000 48.979 123.542 49.044 C 130.602 49.105,131.165 49.132,132.364 49.463 M152.502 58.500 C 152.593 68.610,152.554 68.146,153.470 69.940 C 153.928 70.839,155.171 71.947,156.262 72.429 L 157.167 72.829 157.167 75.071 C 157.167 77.662,157.204 77.607,155.711 77.239 C 151.298 76.152,148.286 72.565,147.676 67.671 C 147.481 66.109,147.427 49.296,147.615 49.107 C 147.679 49.043,148.785 49.012,150.074 49.037 L 152.417 49.083 152.502 58.500 M171.126 58.542 C 171.061 69.319,171.101 68.950,169.643 71.979 C 168.391 74.578,165.862 76.534,162.846 77.235 C 161.444 77.561,161.500 77.651,161.500 75.078 L 161.500 72.843 162.396 72.419 C 164.205 71.563,165.336 70.176,165.938 68.071 C 166.184 67.212,166.230 65.903,166.292 58.042 L 166.363 49.000 168.773 49.000 L 171.184 49.000 171.126 58.542 M201.833 51.320 L 201.833 53.641 196.875 53.700 C 191.205 53.769,190.772 53.852,188.612 55.287 C 186.186 56.899,184.870 59.368,184.683 62.662 L 184.583 64.417 181.935 64.463 L 179.287 64.509 179.383 62.546 C 179.654 57.006,182.388 52.874,187.345 50.510 C 190.018 49.236,191.244 49.054,197.375 49.023 L 201.833 49.000 201.833 51.320 M233.417 51.333 L 233.417 53.583 221.875 53.626 L 210.333 53.669 210.333 51.446 C 210.333 50.223,210.384 49.172,210.446 49.110 C 210.507 49.048,215.701 49.017,221.987 49.041 L 233.417 49.083 233.417 51.333 M273.207 60.958 L 273.250 72.917 280.667 73.000 L 288.083 73.083 288.083 75.250 L 288.083 77.417 278.167 77.417 L 268.250 77.417 268.207 63.417 C 268.183 55.717,268.200 49.323,268.243 49.208 C 268.302 49.055,268.961 49.000,270.744 49.000 L 273.164 49.000 273.207 60.958 M311.959 63.292 L 311.917 77.583 309.458 77.629 L 307.000 77.676 307.000 63.338 L 307.000 49.000 309.501 49.000 L 312.002 49.000 311.959 63.292 M334.674 54.917 C 336.808 60.420,342.672 76.836,342.668 77.296 C 342.667 77.461,342.069 77.498,339.978 77.462 L 337.290 77.417 332.229 63.507 C 329.445 55.857,327.124 49.462,327.071 49.295 C 326.980 49.009,327.129 48.994,329.694 49.037 L 332.413 49.083 334.674 54.917 M354.166 49.208 C 354.164 49.588,345.569 70.694,345.417 70.693 C 345.335 70.692,344.713 69.232,344.035 67.448 L 342.802 64.205 345.642 57.227 C 347.204 53.390,348.600 49.969,348.743 49.625 L 349.004 49.000 351.586 49.000 C 353.540 49.000,354.166 49.051,354.166 49.208 M382.630 51.292 L 382.583 53.583 372.000 53.583 L 361.417 53.583 361.370 51.509 C 361.344 50.368,361.360 49.337,361.406 49.218 C 361.474 49.042,363.522 49.000,372.083 49.000 L 382.676 49.000 382.630 51.292 M15.903 57.875 C 15.945 58.081,16.023 59.098,16.076 60.135 C 16.906 76.193,30.786 89.960,47.000 90.808 L 49.083 90.917 49.129 93.647 L 49.175 96.378 46.546 96.290 C 27.816 95.666,11.296 79.031,10.550 60.042 L 10.450 57.500 13.138 57.500 C 15.793 57.500,15.828 57.505,15.903 57.875 M224.417 67.917 L 224.417 77.417 221.875 77.463 L 219.333 77.509 219.333 68.032 C 219.333 62.820,219.385 58.504,219.449 58.440 C 219.512 58.377,220.656 58.345,221.990 58.371 L 224.417 58.417 224.417 67.917 M380.630 63.126 L 380.676 65.336 371.047 65.293 L 361.417 65.250 361.369 63.260 C 361.343 62.165,361.360 61.171,361.406 61.050 C 361.475 60.871,363.266 60.839,371.037 60.874 L 380.583 60.917 380.630 63.126 M201.792 64.458 C 201.545 69.977,197.987 74.628,192.527 76.569 C 190.356 77.340,188.877 77.500,183.895 77.500 L 179.333 77.500 179.333 75.269 L 179.333 73.037 184.042 72.956 C 190.294 72.849,191.509 72.496,193.920 70.086 C 195.623 68.385,196.390 66.591,196.613 63.792 L 196.716 62.500 199.298 62.500 L 201.879 62.500 201.792 64.458 M382.667 75.251 L 382.667 77.502 372.042 77.460 L 361.417 77.417 361.369 75.426 C 361.343 74.332,361.360 73.338,361.406 73.218 C 361.474 73.042,363.510 73.000,372.078 73.000 L 382.667 73.000 382.667 75.251 " stroke="none" fill="#fbfbfb" fill-rule="evenodd"></path><path id="path1" d="M98.750 49.114 C 89.022 50.362,83.505 59.563,87.016 68.681 C 89.314 74.647,94.111 77.288,102.958 77.457 L 107.500 77.544 107.500 75.286 L 107.500 73.029 103.125 72.967 C 98.287 72.899,97.203 72.693,95.314 71.486 C 89.286 67.633,89.779 57.799,96.161 54.587 C 97.999 53.661,98.270 53.619,103.000 53.514 L 107.417 53.417 107.463 51.208 L 107.510 49.000 103.380 49.025 C 101.108 49.039,99.025 49.079,98.750 49.114 M166.449 49.107 C 166.385 49.170,166.332 53.128,166.330 57.903 C 166.327 69.541,166.003 70.792,162.578 72.412 L 161.667 72.843 161.667 75.088 C 161.667 77.633,161.578 77.508,163.109 77.101 C 166.425 76.218,168.954 73.910,170.117 70.707 C 171.053 68.127,171.076 67.827,171.080 58.083 L 171.083 49.083 168.824 49.037 C 167.581 49.012,166.513 49.043,166.449 49.107 M307.111 49.111 C 307.050 49.172,307.000 55.585,307.000 63.361 L 307.000 77.500 309.417 77.500 L 311.833 77.500 311.833 63.250 L 311.833 49.000 309.528 49.000 C 308.260 49.000,307.172 49.050,307.111 49.111 M327.167 49.164 C 327.167 49.359,337.132 76.787,337.357 77.208 C 337.520 77.515,342.376 77.671,342.557 77.375 C 342.685 77.165,336.978 61.115,334.557 54.875 L 332.277 49.000 329.722 49.000 C 328.159 49.000,327.167 49.064,327.167 49.164 M349.016 49.304 C 348.926 49.471,347.983 51.740,346.919 54.345 C 345.855 56.951,344.538 60.175,343.992 61.509 C 343.446 62.844,343.000 64.051,343.000 64.193 C 343.000 64.561,345.278 70.583,345.417 70.583 C 345.481 70.583,346.451 68.296,347.573 65.500 C 348.696 62.704,350.638 57.880,351.890 54.779 C 353.142 51.678,354.167 49.110,354.167 49.071 C 354.167 48.797,349.166 49.023,349.016 49.304 M116.000 51.323 L 116.000 53.480 122.958 53.539 C 130.562 53.604,130.750 53.626,132.333 54.631 C 134.513 56.016,134.769 59.789,132.806 61.595 C 131.205 63.068,131.222 63.065,123.167 63.164 L 116.083 63.250 116.083 70.333 L 116.083 77.417 118.417 77.417 L 120.750 77.417 120.833 72.500 L 120.917 67.583 124.030 67.538 L 127.144 67.493 127.546 68.038 C 127.767 68.338,129.361 70.590,131.088 73.042 L 134.227 77.500 137.030 77.500 C 138.572 77.500,139.833 77.452,139.833 77.393 C 139.833 77.334,138.177 74.966,136.153 72.132 C 132.754 67.374,132.240 66.500,132.839 66.500 C 132.940 66.500,133.561 66.251,134.219 65.947 C 140.688 62.957,140.731 53.213,134.289 50.256 C 132.085 49.244,131.302 49.167,123.232 49.167 L 116.000 49.167 116.000 51.323 M147.667 58.235 C 147.667 67.999,147.711 68.621,148.557 70.866 C 149.680 73.842,152.177 76.131,155.322 77.065 C 157.071 77.584,157.000 77.668,157.000 75.096 L 157.000 72.858 156.096 72.444 C 152.665 70.873,152.340 69.614,152.336 57.875 L 152.333 49.167 150.000 49.167 L 147.667 49.167 147.667 58.235 M191.277 49.341 C 184.379 50.499,179.613 55.918,179.454 62.782 L 179.417 64.417 181.934 64.463 L 184.452 64.508 184.541 62.796 C 184.719 59.382,186.172 56.726,188.768 55.065 C 190.769 53.785,192.435 53.500,197.929 53.500 L 201.833 53.500 201.833 51.333 L 201.833 49.167 196.958 49.186 C 194.277 49.197,191.720 49.267,191.277 49.341 M210.500 51.417 L 210.500 53.667 221.917 53.667 L 233.333 53.667 233.333 51.417 L 233.333 49.167 221.917 49.167 L 210.500 49.167 210.500 51.417 M268.374 63.292 L 268.417 77.417 278.167 77.417 L 287.917 77.417 287.963 75.208 L 288.010 73.000 280.588 73.000 L 273.167 73.000 273.167 61.083 L 273.167 49.167 270.749 49.167 L 268.331 49.167 268.374 63.292 M361.500 51.333 L 361.500 53.500 372.000 53.500 L 382.500 53.500 382.500 51.333 L 382.500 49.167 372.000 49.167 L 361.500 49.167 361.500 51.333 M219.540 67.958 L 219.583 77.417 221.917 77.417 L 224.250 77.417 224.293 67.958 L 224.336 58.500 221.917 58.500 L 219.497 58.500 219.540 67.958 M361.500 63.167 L 361.500 65.333 371.000 65.333 L 380.500 65.333 380.500 63.167 L 380.500 61.000 371.000 61.000 L 361.500 61.000 361.500 63.167 M196.782 62.607 C 196.719 62.670,196.667 63.185,196.667 63.751 C 196.667 67.763,194.109 71.220,190.167 72.538 C 189.187 72.865,188.622 72.909,184.250 72.992 L 179.417 73.083 179.417 75.250 L 179.417 77.417 184.167 77.411 C 189.427 77.404,190.628 77.255,193.000 76.311 C 198.194 74.244,201.666 69.415,201.731 64.167 L 201.750 62.583 199.324 62.537 C 197.989 62.512,196.846 62.543,196.782 62.607 M361.537 75.208 L 361.583 77.417 372.042 77.460 L 382.500 77.503 382.500 75.251 L 382.500 73.000 371.995 73.000 L 361.490 73.000 361.537 75.208 " stroke="none" fill="#080808" fill-rule="evenodd"></path><path id="path2" d="M44.833 30.087 C 28.617 32.855,18.360 48.510,22.347 64.410 C 25.264 76.046,35.934 84.808,47.667 85.202 L 49.083 85.250 49.129 82.546 C 49.182 79.428,49.397 79.750,47.167 79.607 C 38.396 79.042,30.460 72.479,27.897 63.672 C 23.967 50.166,33.534 36.465,47.667 35.361 L 49.083 35.250 49.129 32.542 L 49.175 29.833 47.629 29.854 C 46.779 29.865,45.521 29.970,44.833 30.087 M47.500 40.941 C 32.126 43.250,27.108 61.539,39.267 70.946 C 41.593 72.746,46.253 74.358,48.500 74.140 L 49.083 74.083 49.167 65.833 L 49.250 57.583 57.500 57.500 C 62.038 57.454,65.744 57.379,65.736 57.333 C 65.728 57.288,65.673 56.603,65.612 55.812 C 64.935 47.012,55.989 39.666,47.500 40.941 M103.884 48.957 L 107.518 49.006 107.467 51.253 C 107.439 52.489,107.475 53.500,107.546 53.500 C 107.618 53.500,107.655 52.469,107.630 51.208 L 107.583 48.917 103.917 48.912 L 100.250 48.907 103.884 48.957 M119.553 49.125 C 121.553 49.151,124.778 49.151,126.720 49.125 C 128.661 49.098,127.025 49.076,123.083 49.076 C 119.142 49.076,117.553 49.098,119.553 49.125 M147.578 49.204 C 147.533 49.321,147.517 53.354,147.542 58.167 L 147.586 66.917 147.627 58.042 L 147.667 49.167 149.999 49.167 L 152.330 49.167 152.376 57.958 L 152.421 66.750 152.419 57.917 L 152.417 49.083 150.038 49.037 C 148.227 49.002,147.640 49.042,147.578 49.204 M195.042 49.125 C 196.302 49.153,198.365 49.153,199.625 49.125 C 200.885 49.096,199.854 49.073,197.333 49.073 C 194.813 49.073,193.781 49.096,195.042 49.125 M210.407 49.216 C 210.361 49.336,210.346 50.405,210.375 51.592 L 210.428 53.750 210.464 51.458 L 210.500 49.167 221.912 49.167 L 233.324 49.167 233.378 51.334 L 233.432 53.500 233.424 51.292 L 233.417 49.083 221.954 49.041 C 212.627 49.006,210.475 49.038,210.407 49.216 M268.278 49.111 C 268.123 49.265,268.137 77.295,268.292 77.391 C 268.360 77.433,268.397 71.102,268.373 63.322 L 268.330 49.176 270.790 49.125 L 273.250 49.074 270.819 49.037 C 269.483 49.017,268.339 49.050,268.278 49.111 M311.874 63.204 L 311.833 77.491 309.375 77.542 L 306.917 77.593 309.380 77.630 C 311.225 77.657,311.864 77.614,311.923 77.458 C 311.967 77.344,311.983 70.875,311.959 63.083 L 311.915 48.917 311.874 63.204 M361.406 49.218 C 361.360 49.337,361.344 50.368,361.370 51.509 L 361.417 53.583 372.000 53.583 L 382.583 53.583 382.630 51.292 L 382.676 49.000 372.083 49.000 C 363.522 49.000,361.474 49.042,361.406 49.218 M382.500 51.333 L 382.500 53.500 372.000 53.500 L 361.500 53.500 361.500 51.333 L 361.500 49.167 372.000 49.167 L 382.500 49.167 382.500 51.333 M136.660 51.875 C 137.068 52.310,137.425 52.667,137.451 52.667 C 137.577 52.667,137.444 52.517,136.708 51.826 L 135.917 51.083 136.660 51.875 M89.744 53.375 L 88.917 54.250 89.792 53.423 C 90.605 52.654,90.743 52.500,90.619 52.500 C 90.592 52.500,90.199 52.894,89.744 53.375 M182.658 53.958 L 182.083 54.583 182.708 54.009 C 183.052 53.693,183.333 53.412,183.333 53.384 C 183.333 53.257,183.192 53.377,182.658 53.958 M119.197 53.625 C 121.002 53.652,124.002 53.652,125.864 53.625 C 127.726 53.598,126.250 53.576,122.583 53.576 C 118.917 53.576,117.393 53.598,119.197 53.625 M195.542 53.625 C 196.710 53.653,198.623 53.653,199.792 53.625 C 200.960 53.596,200.004 53.572,197.667 53.572 C 195.329 53.572,194.373 53.596,195.542 53.625 M93.744 56.375 L 92.917 57.250 93.792 56.423 C 94.605 55.654,94.743 55.500,94.619 55.500 C 94.592 55.500,94.199 55.894,93.744 56.375 M139.039 57.000 C 139.039 57.321,139.073 57.452,139.115 57.292 C 139.157 57.131,139.157 56.869,139.115 56.708 C 139.073 56.548,139.039 56.679,139.039 57.000 M10.550 60.042 C 11.296 79.031,27.816 95.666,46.546 96.290 L 49.175 96.378 49.129 93.647 L 49.083 90.917 47.000 90.808 C 36.254 90.246,26.034 83.930,20.489 74.424 C 17.957 70.084,16.316 64.769,16.076 60.135 C 15.924 57.184,16.276 57.500,13.138 57.500 L 10.450 57.500 10.550 60.042 M134.050 58.333 C 134.050 58.837,134.081 59.044,134.119 58.792 C 134.158 58.540,134.158 58.127,134.119 57.875 C 134.081 57.623,134.050 57.829,134.050 58.333 M219.449 58.440 C 219.292 58.597,219.301 77.500,219.458 77.500 C 219.527 77.500,219.563 73.225,219.539 68.000 L 219.495 58.500 221.917 58.500 L 224.339 58.500 224.294 67.992 C 224.270 73.212,224.307 77.427,224.376 77.357 C 224.446 77.287,224.483 72.997,224.460 67.824 L 224.417 58.417 221.990 58.371 C 220.656 58.345,219.512 58.377,219.449 58.440 M361.406 61.050 C 361.360 61.171,361.346 62.165,361.375 63.260 L 361.428 65.250 361.464 63.125 L 361.500 61.000 370.995 61.000 L 380.490 61.000 380.545 63.208 L 380.599 65.417 380.591 63.167 L 380.583 60.917 371.037 60.874 C 363.266 60.839,361.475 60.871,361.406 61.050 M179.372 61.833 C 179.372 62.154,179.406 62.285,179.448 62.125 C 179.490 61.965,179.490 61.702,179.448 61.542 C 179.406 61.381,179.372 61.512,179.372 61.833 M85.895 63.167 C 85.895 64.129,85.923 64.523,85.956 64.042 C 85.990 63.560,85.990 62.773,85.956 62.292 C 85.923 61.810,85.895 62.204,85.895 63.167 M184.557 63.083 C 184.558 63.817,184.587 64.096,184.622 63.704 C 184.657 63.312,184.657 62.712,184.621 62.371 C 184.585 62.029,184.557 62.350,184.557 63.083 M91.053 63.333 C 91.053 63.929,91.084 64.173,91.121 63.875 C 91.158 63.577,91.158 63.090,91.121 62.792 C 91.084 62.494,91.053 62.737,91.053 63.333 M136.667 64.250 C 136.262 64.662,135.968 65.000,136.014 65.000 C 136.060 65.000,136.428 64.662,136.833 64.250 C 137.238 63.837,137.532 63.500,137.486 63.500 C 137.440 63.500,137.072 63.837,136.667 64.250 M166.214 66.083 C 166.216 66.542,166.248 66.709,166.286 66.456 C 166.325 66.203,166.324 65.828,166.284 65.623 C 166.244 65.418,166.213 65.625,166.214 66.083 M171.050 66.333 C 171.050 66.837,171.081 67.044,171.119 66.792 C 171.158 66.540,171.158 66.127,171.119 65.875 C 171.081 65.623,171.050 65.829,171.050 66.333 M120.913 67.708 C 120.781 68.070,120.744 77.472,120.875 77.391 C 120.944 77.348,121.000 75.143,121.000 72.490 L 121.000 67.667 124.029 67.667 C 126.670 67.667,127.101 67.704,127.404 67.958 C 127.750 68.250,127.750 68.250,127.433 67.875 C 127.053 67.427,121.072 67.274,120.913 67.708 M200.527 69.257 C 200.248 69.870,200.301 70.001,200.603 69.444 C 200.744 69.183,200.828 68.939,200.790 68.901 C 200.752 68.863,200.634 69.023,200.527 69.257 M193.910 70.208 L 193.083 71.083 193.958 70.256 C 194.440 69.801,194.833 69.408,194.833 69.381 C 194.833 69.257,194.679 69.395,193.910 70.208 M154.250 71.167 C 154.608 71.533,154.938 71.833,154.984 71.833 C 155.030 71.833,154.775 71.533,154.417 71.167 C 154.059 70.800,153.728 70.500,153.682 70.500 C 153.637 70.500,153.892 70.800,154.250 71.167 M156.967 74.994 C 157.013 77.102,156.991 77.313,156.717 77.393 C 156.469 77.466,156.475 77.475,156.750 77.447 C 157.100 77.411,157.374 73.141,157.047 72.813 C 156.975 72.741,156.939 73.722,156.967 74.994 M161.573 72.884 C 161.359 73.441,161.584 77.390,161.833 77.457 C 162.028 77.510,162.035 77.491,161.866 77.372 C 161.700 77.256,161.660 76.673,161.699 74.942 C 161.749 72.691,161.735 72.460,161.573 72.884 M99.708 72.948 C 99.869 72.990,100.131 72.990,100.292 72.948 C 100.452 72.906,100.321 72.872,100.000 72.872 C 99.679 72.872,99.548 72.906,99.708 72.948 M187.708 72.948 C 187.869 72.990,188.131 72.990,188.292 72.948 C 188.452 72.906,188.321 72.872,188.000 72.872 C 187.679 72.872,187.548 72.906,187.708 72.948 M107.566 75.250 C 107.566 76.533,107.592 77.036,107.624 76.368 C 107.656 75.699,107.655 74.649,107.623 74.034 C 107.591 73.420,107.565 73.967,107.566 75.250 M382.566 75.250 C 382.566 76.533,382.592 77.036,382.624 76.368 C 382.656 75.699,382.655 74.649,382.623 74.034 C 382.591 73.420,382.565 73.967,382.566 75.250 M287.999 75.284 C 287.954 76.494,287.975 77.426,288.047 77.354 C 288.119 77.282,288.156 76.291,288.130 75.153 L 288.082 73.083 287.999 75.284 M361.363 75.198 C 361.347 76.362,361.390 77.349,361.458 77.391 C 361.527 77.434,361.563 76.820,361.539 76.026 C 361.456 73.363,361.394 73.068,361.363 75.198 M150.660 74.375 C 151.068 74.810,151.425 75.167,151.451 75.167 C 151.577 75.167,151.444 75.017,150.708 74.326 L 149.917 73.583 150.660 74.375 M167.742 74.542 L 167.083 75.250 167.792 74.591 C 168.181 74.229,168.500 73.910,168.500 73.883 C 168.500 73.757,168.355 73.883,167.742 74.542 M99.127 77.451 C 99.334 77.491,99.634 77.490,99.794 77.448 C 99.953 77.406,99.783 77.374,99.417 77.375 C 99.050 77.377,98.920 77.411,99.127 77.451 M188.042 77.448 C 188.202 77.490,188.465 77.490,188.625 77.448 C 188.785 77.406,188.654 77.372,188.333 77.372 C 188.012 77.372,187.881 77.406,188.042 77.448 " stroke="none" fill="#cc1e26" fill-rule="evenodd"></path></g></svg>