<svg xmlns="http://www.w3.org/2000/svg" viewBox="0 0 178 178" width="32" height="32">
	<style>
		tspan { white-space:pre }
		.shp0 { fill: #c91d27 } 
		.shp1 { fill: #000000 } 
	</style>
	<g id="Layer">
		<path id="Layer" class="shp0" d="M83.5 14C53.9 20 32 46.5 32 76.5C32 91.8 38.1 107.9 48.1 119.2C57.8 130.3 74.5 138.9 89.3 140.6L95 141.3L95 134.6L95 128L91.7 128C81.8 128 67.8 121.6 59.5 113.3C50.1 103.9 45.3 93.2 44.3 79.5C42.5 53.9 61.7 30.1 87.5 25.9L95 24.7L95 18.9L95 13L91.3 13.1C89.2 13.2 85.7 13.6 83.5 14Z" />
		<path id="Layer" class="shp1" d="M501.5 33.7C485.4 35.9 468 46.5 460 59C455.6 65.9 452.2 76.1 451.5 85C450.6 94.9 452.8 105.1 458 115.7C462.9 125.7 471.8 134.3 482.4 139.5C493.8 145.1 499.1 146 519.7 146L538.1 146L537.8 137.2L537.5 128.5L519 127.9C498.9 127.3 495.6 126.6 487.5 121C477.3 114 472.5 103.8 472.6 89.5C472.7 72 480.7 60.2 497 53.5C500.6 52.1 505.3 51.5 519.5 51.1L537.5 50.5L537.5 42L537.5 33.5L521 33.4C511.9 33.3 503.2 33.5 501.5 33.7Z" />
		<path id="Layer" class="shp1" d="M734.7 33.7C733.9 35 757.8 101.2 774.7 144.7C775.3 146.1 796 146.6 796 145.2C796 144.8 786.9 119.5 775.7 89L755.5 33.5L745.3 33.2C739.7 33.1 735 33.3 734.7 33.7Z" />
		<path id="Layer" class="shp1" d="M813.3 34.4C813.6 35.1 823.2 50.3 834.7 68.1L855.5 100.5L856 123.5L856.5 146.5L867 146.5L877.5 146.5L877.7 124L878 101.5L856.2 67.5L834.4 33.5L823.6 33.2C814.5 33 812.8 33.2 813.3 34.4Z" />
		<path id="Layer" class="shp1" d="M899.3 36.7C894.4 43 876 69.7 876 70.5C876 71.6 886.1 85 886.9 85C887.9 85 921 35.4 921 34C921 33.4 917.2 33 911.6 33L902.2 33L899.3 36.7Z" />
		<path id="Layer" class="shp1" d="M1081 90L1081 147L1090.5 147C1099.5 147 1100 146.9 1100.5 144.7C1100.8 143.5 1100.9 118 1100.8 88L1100.5 33.5L1090.8 33.2L1081 32.9L1081 90Z" />
		<path id="Layer" class="shp1" d="M242 36.4C237.9 37.6 232.2 39.8 229.3 41.3C221.9 45.1 211.9 54.8 208.1 61.9C204.2 69.3 201 81.5 201 89.2L201 95L211.5 95L222 95L222 89.1C222 76.3 228.1 64.4 238.2 58C246.1 52.9 250.9 52 271.9 52C287.3 52 289.9 51.8 290.4 50.4C290.7 49.5 291 45.5 291 41.4L291 34L270.3 34.1C251.7 34.1 248.7 34.3 242 36.4Z" />
		<path id="Layer" class="shp1" d="M353.5 35.4C334.7 41.4 320.4 56.5 315.5 75.5C313.6 83.1 313.6 96.9 315.5 104.5C320.5 123.5 333.8 137.9 352.2 144.1C362 147.4 362 147.4 362 137C362 130.1 361.7 128 360.6 128C358 128 349.4 122.7 344.8 118.3C342.2 115.7 338.9 111 337.3 107.6C334.7 102 334.5 100.6 334.5 89.5C334.5 78.3 334.7 77.1 337.4 71.6C341.3 63.7 349.2 56 356.1 53.3L361.5 51.3L361.8 42.6C362.1 34.2 362 34 359.8 34.1C358.5 34.1 355.7 34.7 353.5 35.4Z" />
		<path id="Layer" class="shp1" d="M379 42.7L379 51.6L384.6 53.9C395.9 58.7 404.3 70.3 405.9 83.7C408.2 103.2 399.9 119.7 384.3 126.2L379 128.4L379 137.2C379 143.8 379.3 146 380.3 146C384 146 393.3 142.3 399.7 138.4C412 130.8 420.9 118.6 424.5 104.5C426.4 96.9 426.4 82.1 424.5 74.6C422.1 65.6 416.2 55.2 409.6 48.6C403.3 42.3 391.2 35.8 383.3 34.5L379 33.8L379 42.7Z" />
		<path id="Layer" class="shp1" d="M577.2 42.2L577.5 50.5L602 51C628.8 51.6 631.6 52.1 635.9 57.6C637.9 60.1 638.1 61.4 637.8 66.7C637.4 73.7 635.7 76.3 630 78.9C627.2 80.2 621.6 80.6 602 81L577.5 81.5L577.5 89.5L577.5 97.5L605 98C631.1 98.5 632.7 98.6 636.7 100.8C641.8 103.5 644.3 107.9 644.2 113.9C644.2 119.5 641.8 122.8 635.4 126C630.6 128.5 630 128.5 603.7 128.8L576.9 129.1L577.2 137.3L577.5 145.5L604.3 145.8C625.3 146 632.4 145.7 637.5 144.5C649 141.9 657.3 136.3 661.2 128.6C664.2 122.9 664.9 110.5 662.6 104.6C660.5 99.2 653.7 92.7 647.2 89.8C643 88 642.7 87.7 644.4 86.6C648.9 83.9 651.8 80.8 654.5 75.8C657.1 71.2 657.5 69.5 657.5 62.5C657.5 52.4 654.8 46.4 648.1 41.4C639.2 34.8 634.2 34 603.9 34L576.9 34L577.2 42.2Z" />
		<path id="Layer" class="shp1" d="M1195.6 36.5C1178.4 42.6 1165.2 56.8 1160.5 74.6C1158.5 82.2 1158.5 97.7 1160.5 105.3C1165.2 123.3 1179.7 138.7 1196.8 144C1207.2 147.2 1207 147.4 1207 137.2L1207 128.5L1202 126.7C1195.3 124.3 1185.8 115.5 1182.6 108.5C1172.6 87.5 1181.8 60.4 1201.3 53.2L1206.5 51.2L1206.8 42.6C1207.1 34.2 1207 34 1204.8 34C1203.5 34 1199.4 35.1 1195.6 36.5Z" />
		<path id="Layer" class="shp1" d="M1223 42.5L1223 51L1229.3 53.8C1237.4 57.5 1243.4 63.6 1247.3 71.8C1250.3 78.1 1250.5 79.2 1250.5 90C1250.5 100.5 1250.3 102 1247.7 107.6C1244.1 115.4 1236.3 123.1 1228.8 126.4L1223 129L1223 137.6L1223 146.3L1227.3 145.6C1234.9 144.5 1247.6 137.4 1254.6 130.5C1261.9 123.2 1268.1 111.4 1270.1 101.2C1271.7 92.7 1270.7 78.2 1268 70.3C1262.2 53.5 1248.7 40.5 1232.1 35.6C1222.8 32.9 1223 32.8 1223 42.5Z" />
		<path id="Layer" class="shp0" d="M81.6 41.4C66.7 47.7 58 60.6 58 76.4C58 80.4 58.7 85.9 59.5 88.5C61.5 95.2 67.3 103.3 73.2 107.6C78.1 111.2 88 115 92.6 115L95 115L95 96L95 77L114.5 77C136.7 77 135.2 77.8 132.4 67.5C129.6 56.4 122.5 47.6 112.2 42.4C107.4 40 105.2 39.5 97 39.2C88.7 39 86.8 39.2 81.6 41.4Z" />
		<path id="Layer" class="shp1" d="M722.4 61.5C722 62.6 714.3 81.7 705.3 103.9C696.3 126.1 689 144.7 689 145.2C689 145.7 693.6 145.9 699.2 145.8L709.3 145.5L721.2 116.5C727.7 100.6 733 86.8 733 85.9C733 84.3 725.6 64 724 61C723.3 59.7 723 59.8 722.4 61.5Z" />
		<path id="Layer" class="shp0" d="M6.5 83.7C8.6 105.3 16.7 123.2 30.9 138.3C46 154.3 66.1 164.2 86.8 165.7L95 166.3L95 160.3L95 154.3L87.8 153.6C78.7 152.8 64.4 148 56 143C36.2 131.2 21.6 109.1 19.5 87.7C18.4 76.5 18.8 77 11.9 77L5.8 77L6.5 83.7Z" />
		<path id="Layer" class="shp1" d="M270 90.8C270 96.2 267.4 105.5 264.4 110.5C261 116.3 255 121.7 248.1 124.9C242.8 127.4 241.5 127.5 222 128L201.5 128.5L201.2 137.2L200.9 146L220.7 146C242.8 146 249.1 145 259.3 139.9C277.6 130.9 288.6 114.5 290.5 93.7L291.1 87L280.5 87L270 87L270 90.8Z" />
	</g>
</svg>