<svg version="1.2" baseProfile="tiny-ps" xmlns="http://www.w3.org/2000/svg" viewBox="0 0 1623 386" width="1623" height="386">
	<title>socbay-original (1)</title>
	<style>
		tspan { white-space:pre }
		.shp0 { fill: #000000 } 
		.shp1 { fill: #c91d27 } 
	</style>
	<g id="Layer">
		<path id="Layer" fill-rule="evenodd" class="shp0" d="M1348.97 127.73C1350.49 128.3 1445.4 255.03 1444.83 255.89C1444.54 256.27 1437.89 256.65 1430.1 256.65C1413.29 256.65 1416.8 259.02 1399.8 236.32L1387.92 220.55L1309.74 220.55L1297.2 237.36C1290.26 246.67 1283.99 254.75 1283.23 255.41C1281.62 256.65 1253.97 257.12 1253.12 255.89C1252.83 255.51 1254.45 252.75 1256.63 249.9C1258.91 247.05 1280.38 218.36 1304.32 186.06C1328.36 153.86 1348.4 127.54 1348.97 127.73ZM1348.97 169.34C1347.83 169.25 1329.02 193.76 1329.69 194.42C1329.97 194.71 1338.81 194.8 1349.35 194.71L1368.45 194.42L1359.23 181.88C1354.1 174.95 1349.45 169.34 1348.97 169.34ZM1450.15 134.1L1460.98 134.1C1466.96 134.1 1472.47 134.38 1473.33 134.67C1474.56 135.14 1474.85 136.85 1474.85 143.03C1474.85 152.43 1475.89 156.33 1479.88 162.31C1483.78 168.2 1493.94 175.04 1503.35 178.18C1527.1 185.97 1563.01 182.74 1579.73 171.24C1589.8 164.31 1593.88 156.61 1594.26 144.17C1594.36 139.51 1594.83 135.33 1595.31 134.86C1595.78 134.38 1601.2 134.19 1607.47 134.29L1618.77 134.57L1618.68 145.5C1618.68 154.14 1618.2 157.75 1616.49 162.79C1613.74 171.24 1608.51 178.94 1601.29 185.59C1588.85 197.08 1575.55 202.69 1550.66 206.77L1547.05 207.34L1546.95 227.96C1546.95 239.26 1546.67 250.28 1546.29 252.37L1545.62 256.17L1521.87 256.17L1521.87 232.14C1521.87 211.71 1521.68 207.91 1520.45 207.34C1519.69 206.87 1516.36 206.3 1513.13 205.92C1488.43 203.26 1465.16 189.01 1455.94 170.86C1451.57 162.22 1450.15 155.85 1450.15 144.26L1450.15 134.1ZM474.78 135.14L544.8 135.05L544.8 159.75L477.35 159.75C401.92 159.75 404.39 159.56 401.73 166.11C398.88 172.95 402.01 179.7 408.85 181.6C410.75 182.07 434.69 182.64 462.62 182.83L512.97 183.21L519.81 185.59C523.61 186.92 528.36 189.29 530.55 190.81C542.8 199.93 547.84 216.46 542.9 232.04C539.76 242.3 532.73 249.33 521.24 253.99L515.82 256.17L445.81 256.46L375.7 256.74L375.7 231L445.05 230.81L514.4 230.52L516.87 228.05C520.1 224.82 521.05 217.89 518.77 214.37C514.87 208.48 517.15 208.77 459.3 208.1C407.81 207.63 406.48 207.53 400.87 205.54C383.68 199.17 374.65 185.4 375.98 167.63C377.12 152.81 386.53 140.84 400.68 136.47C403.82 135.43 419.59 135.14 474.78 135.14ZM729.57 136.95C753.51 138.94 763.96 146.16 767.57 163.07C769.28 171.15 769.57 212.66 767.95 224.06C765.58 241.16 756.74 250.66 739.64 254.37C729.19 256.65 678.75 258.17 654.24 256.84C626.88 255.41 619.37 253.32 610.82 244.87C603.32 237.27 600.85 225.96 600.85 198.6C600.85 179.13 602.18 165.07 604.74 158.23C607.31 151.39 614.24 144.36 621.08 141.89C630.11 138.47 637.04 137.71 664.5 137.04C706.39 136 717.32 136 729.57 136.95ZM635.9 163.45C628.02 165.16 627.54 165.64 626.4 175.42C625.17 185.68 625.74 221.78 627.26 225.49C629.63 231.28 636.47 232.14 681.5 232.04C716.46 231.95 731.76 231.09 738.22 229C743.44 227.39 743.82 225.11 743.82 194.9C743.82 175.33 743.54 167.25 742.68 165.83C741.92 164.59 739.83 163.36 737.08 162.69C727.77 160.32 647.59 160.89 635.9 163.45ZM1116.89 136C1193.84 136 1191.94 135.81 1202.96 143.5C1209.42 148.06 1212.84 152.43 1215.59 159.84C1219.39 169.72 1217.68 185.21 1212.08 193.47C1210.08 196.42 1209.8 197.46 1210.65 198.7C1211.22 199.46 1212.93 202.5 1214.36 205.35C1216.73 210.1 1216.92 211.52 1216.92 221.5C1216.92 231.66 1216.73 232.8 1214.17 237.93C1209.32 247.43 1199.92 254.27 1188.42 256.65C1185.38 257.31 1159.92 257.5 1116.22 257.41L1048.77 257.12L1048.49 197.75C1048.39 165.07 1048.49 137.8 1048.77 137.14C1049.06 136.28 1063.59 136 1116.89 136ZM1126.96 160.7L1073.85 160.7L1074.14 172.29L1074.42 183.97L1126.67 184.26C1162.77 184.45 1180.44 184.26 1183.86 183.5C1190.32 182.07 1192.7 179.22 1192.7 173.05C1192.7 167.35 1190.32 164.21 1184.43 162.22C1180.63 160.89 1173.03 160.7 1126.96 160.7ZM1127.24 209.15L1073.85 209.15L1074.14 220.74L1074.42 232.42L1127.15 232.71C1171.99 232.9 1180.54 232.71 1184.81 231.47C1190.99 229.67 1192.7 227.39 1192.7 220.93C1192.7 215.13 1190.23 212 1184.34 210.29C1181.68 209.43 1165.15 209.15 1127.24 209.15ZM992.72 137.99C993.1 138.56 993.1 144.07 992.72 150.34L992.06 161.65L946.27 161.65C921 161.65 897.63 162.12 893.92 162.6C872.55 165.64 858.96 173.05 852.79 184.92C850.6 188.91 850.22 190.91 850.22 197.27C850.32 203.92 850.6 205.54 853.07 210C860.2 222.92 876.06 230.05 902.57 232.04C910.64 232.71 931.73 232.99 954.15 232.8L992.06 232.42L992.72 244.11C993.01 250.57 993.1 256.17 992.72 256.46C991.68 257.6 917.48 257.79 901.52 256.74C860.01 254.08 834.74 238.41 826.85 210.57C824.76 203.07 825.14 188.06 827.71 180.84C833.6 164.21 846.42 151.77 864.95 144.64C873.78 141.22 878.72 139.99 890.12 138.37C901.33 136.76 991.77 136.47 992.72 137.99Z" />
		<path id="Layer" class="shp1" d="M117.36 129.98C117.47 168.04 117.69 177.77 118.8 176.33C119.57 175.34 129.09 164.94 140.04 153.32C150.99 141.59 159.95 131.08 159.95 129.98C159.95 128.87 157.19 125.11 153.87 121.46C128.64 94.35 123.78 89.15 120.79 85.72L117.36 81.85L117.36 129.98ZM38.81 113.27C38.81 113.6 53.74 128.87 72.11 147.13L105.3 180.32L104.52 152.66C104.19 137.39 103.53 122.79 103.09 120.02L102.42 115.04L83.61 114.27C42.79 112.72 38.81 112.61 38.81 113.27ZM161.06 150.11L127.87 183.64L132.63 183.97C138.38 184.41 191.48 182.31 192.15 181.64C192.81 181.09 195.14 120.68 194.58 118.36C194.36 117.25 182.19 128.87 161.06 150.11ZM45.33 151.33C42.57 153.87 33.83 161.95 25.97 169.36C18.12 176.66 9.71 184.52 7.28 186.73L2.85 190.72L50.98 190.72L99.1 190.72L92.47 184.52C88.81 181.09 79.19 172.13 71.22 164.61C57.39 151.55 51.64 146.57 50.76 146.57C50.64 146.57 48.1 148.67 45.33 151.33ZM111.61 187.06C109.17 188.28 108.51 189.5 108.51 192.49C108.51 197.24 110.94 199.68 115.7 199.68C120.01 199.68 121.78 197.46 121.78 192.04C121.78 189.39 121.01 188.28 118.46 186.95C114.7 184.96 115.37 184.96 111.61 187.06ZM135.61 201.67C153.76 218.71 171.46 235.19 174.45 237.63L177.88 240.61L180.75 238.07C186.51 232.98 224.68 197.02 224.68 196.69C224.68 196.47 203.43 196.36 177.43 196.36L130.08 196.36L135.61 201.67ZM97.33 202.33C97.11 202.55 83.5 203.11 67.02 203.55C50.64 203.99 36.93 204.55 36.59 204.77C36.04 205.43 34.6 239.51 34.49 256.65L34.38 269.93L67.57 236.74C85.83 218.49 100.76 203.22 100.76 202.78C100.76 201.89 98.22 201.56 97.33 202.33ZM123.33 212.07C123.66 215.28 124.33 229.99 124.66 244.71L125.43 271.37L131.08 272.03C134.17 272.37 148.89 272.92 163.83 273.36L190.93 274.02L157.19 240.17C138.6 221.58 123.22 206.32 123 206.32C122.78 206.32 122.89 208.97 123.33 212.07ZM104.52 216.6C100.87 220.48 91.14 230.99 82.73 239.95C74.32 248.91 67.57 256.65 67.79 257.21C68.01 257.76 73.88 264.29 80.85 271.81C87.82 279.34 97.33 289.51 101.87 294.38C106.41 299.36 110.5 303.45 111.05 303.56C111.49 303.56 111.83 282.54 111.83 256.65C111.83 230.77 111.61 209.63 111.38 209.63C111.16 209.63 108.06 212.73 104.52 216.6Z" />
	</g>
</svg>