<svg version="1.2" baseProfile="tiny-ps" xmlns="http://www.w3.org/2000/svg" viewBox="0 0 219 219" width="219" height="219">
	<title>socbay-svg</title>
	<style>
		tspan { white-space:pre }
		.shp0 { fill: #c91d27 } 
		.shp1 { fill: #000000 } 
	</style>
	<g id="Layer">
		<path id="Layer" class="shp0" d="M111 53C111.1 87.4 111.3 96.2 112.3 94.9C113 94 121.6 84.6 131.5 74.1C141.4 63.5 149.5 54 149.5 53C149.5 52 147 48.6 144 45.3C121.2 20.8 116.8 16.1 114.1 13L111 9.5L111 53Z" />
		<path id="Layer" class="shp0" d="M40 37.9C40 38.2 53.5 52 70.1 68.5L100.1 98.5L99.4 73.5C99.1 59.7 98.5 46.5 98.1 44L97.5 39.5L80.5 38.8C43.6 37.4 40 37.3 40 37.9Z" />
		<path id="Layer" class="shp0" d="M150.5 71.2L120.5 101.5L124.8 101.8C130 102.2 178 100.3 178.6 99.7C179.2 99.2 181.3 44.6 180.8 42.5C180.6 41.5 169.6 52 150.5 71.2Z" />
		<path id="Layer" fill-rule="evenodd" class="shp1" d="M1320.5 44.3C1322.1 44.9 1422 178.3 1421.4 179.2C1421.1 179.6 1414.1 180 1405.9 180C1388.2 180 1391.9 182.5 1374 158.6L1361.5 142L1279.2 142L1266 159.7C1258.7 169.5 1252.1 178 1251.3 178.7C1249.6 180 1220.5 180.5 1219.6 179.2C1219.3 178.8 1221 175.9 1223.3 172.9C1225.7 169.9 1248.3 139.7 1273.5 105.7C1298.8 71.8 1319.9 44.1 1320.5 44.3ZM1320.5 88.1C1319.3 88 1299.5 113.8 1300.2 114.5C1300.5 114.8 1309.8 114.9 1320.9 114.8L1341 114.5L1331.3 101.3C1325.9 94 1321 88.1 1320.5 88.1Z" />
		<path id="Layer" class="shp1" d="M1427 61.7C1427 73.9 1428.5 80.6 1433.1 89.7C1442.8 108.8 1467.3 123.8 1493.3 126.6C1496.7 127 1500.2 127.6 1501 128.1C1502.3 128.7 1502.5 132.7 1502.5 154.2L1502.5 179.5L1515 179.5L1527.5 179.5L1528.2 175.5C1528.6 173.3 1528.9 161.7 1528.9 149.8L1529 128.1L1532.8 127.5C1559 123.2 1573 117.3 1586.1 105.2C1593.7 98.2 1599.2 90.1 1602.1 81.2C1603.9 75.9 1604.4 72.1 1604.4 63L1604.5 51.5L1592.6 51.2C1586 51.1 1580.3 51.3 1579.8 51.8C1579.3 52.3 1578.8 56.7 1578.7 61.6C1578.3 74.7 1574 82.8 1563.4 90.1C1545.8 102.2 1508 105.6 1483 97.4C1473.1 94.1 1462.4 86.9 1458.3 80.7C1454.1 74.4 1453 70.3 1453 60.4C1453 53.9 1452.7 52.1 1451.4 51.6C1450.5 51.3 1444.7 51 1438.4 51L1427 51L1427 61.7Z" />
		<path id="Layer" class="shp1" d="M322.3 53.5C307.4 58.1 297.5 70.7 296.3 86.3C294.9 105 304.4 119.5 322.5 126.2C328.4 128.3 329.8 128.4 384 128.9C444.9 129.6 442.5 129.3 446.6 135.5C449 139.2 448 146.5 444.6 149.9L442 152.5L369 152.8L296 153L296 166.6L296 180.1L369.8 179.8L443.5 179.5L449.2 177.2C461.3 172.3 468.7 164.9 472 154.1C477.2 137.7 471.9 120.3 459 110.7C456.7 109.1 451.7 106.6 447.7 105.2L440.5 102.7L387.5 102.3C358.1 102.1 332.9 101.5 330.9 101C323.7 99 320.4 91.9 323.4 84.7C326.2 77.8 323.6 78 403 78L474 78L474 65L474 52L400.3 52.1C342.2 52.1 325.6 52.4 322.3 53.5Z" />
		<path id="Layer" fill-rule="evenodd" class="shp1" d="M668.5 54C693.7 56.1 704.7 63.7 708.5 81.5C710.3 90 710.6 133.7 708.9 145.7C706.4 163.7 697.1 173.7 679.1 177.6C668.1 180 615 181.6 589.2 180.2C560.4 178.7 552.5 176.5 543.5 167.6C535.6 159.6 533 147.7 533 118.9C533 98.4 534.4 83.6 537.1 76.4C539.8 69.2 547.1 61.8 554.3 59.2C563.8 55.6 571.1 54.8 600 54.1C644.1 53 655.6 53 668.5 54ZM569.9 81.9C561.6 83.7 561.1 84.2 559.9 94.5C558.6 105.3 559.2 143.3 560.8 147.2C563.3 153.3 570.5 154.2 617.9 154.1C654.7 154 670.8 153.1 677.6 150.9C683.1 149.2 683.5 146.8 683.5 115C683.5 94.4 683.2 85.9 682.3 84.4C681.5 83.1 679.3 81.8 676.4 81.1C666.6 78.6 582.2 79.2 569.9 81.9Z" />
		<path id="Layer" fill-rule="evenodd" class="shp1" d="M1076.2 53C1157.2 53 1155.2 52.8 1166.8 60.9C1173.6 65.7 1177.2 70.3 1180.1 78.1C1184.1 88.5 1182.3 104.8 1176.4 113.5C1174.3 116.6 1174 117.7 1174.9 119C1175.5 119.8 1177.3 123 1178.8 126C1181.3 131 1181.5 132.5 1181.5 143C1181.5 153.7 1181.3 154.9 1178.6 160.3C1173.5 170.3 1163.6 177.5 1151.5 180C1148.3 180.7 1121.5 180.9 1075.5 180.8L1004.5 180.5L1004.2 118C1004.1 83.6 1004.2 54.9 1004.5 54.2C1004.8 53.3 1020.1 53 1076.2 53ZM1086.8 79L1030.9 79L1031.2 91.2L1031.5 103.5L1086.5 103.8C1124.5 104 1143.1 103.8 1146.7 103C1153.5 101.5 1156 98.5 1156 92C1156 86 1153.5 82.7 1147.3 80.6C1143.3 79.2 1135.3 79 1086.8 79ZM1087.1 130L1030.9 130L1031.2 142.2L1031.5 154.5L1087 154.8C1134.2 155 1143.2 154.8 1147.7 153.5C1154.2 151.6 1156 149.2 1156 142.4C1156 136.3 1153.4 133 1147.2 131.2C1144.4 130.3 1127 130 1087.1 130Z" />
		<path id="Layer" class="shp1" d="M837.5 55.5C825.5 57.2 820.3 58.5 811 62.1C791.5 69.6 778 82.7 771.8 100.2C769.1 107.8 768.7 123.6 770.9 131.5C779.2 160.8 805.8 177.3 849.5 180.1C866.3 181.2 944.4 181 945.5 179.8C945.9 179.5 945.8 173.6 945.5 166.8L944.8 154.5L904.9 154.9C881.3 155.1 859.1 154.8 850.6 154.1C822.7 152 806 144.5 798.5 130.9C795.9 126.2 795.6 124.5 795.5 117.5C795.5 110.8 795.9 108.7 798.2 104.5C804.7 92 819 84.2 841.5 81C845.4 80.5 870 80 896.6 80L944.8 80L945.5 68.1C945.9 61.5 945.9 55.7 945.5 55.1C944.5 53.5 849.3 53.8 837.5 55.5Z" />
		<path id="Layer" class="shp0" d="M45.9 72.3C43.4 74.6 35.5 81.9 28.4 88.6C21.3 95.2 13.7 102.3 11.5 104.3L7.5 107.9L51 107.9L94.5 107.9L88.5 102.3C85.2 99.2 76.5 91.1 69.3 84.3C56.8 72.5 51.6 68 50.8 68C50.7 68 48.4 69.9 45.9 72.3Z" />
		<path id="Layer" class="shp0" d="M105.8 104.6C103.6 105.7 103 106.8 103 109.5C103 113.8 105.2 116 109.5 116C113.4 116 115 114 115 109.1C115 106.7 114.3 105.7 112 104.5C108.6 102.7 109.2 102.7 105.8 104.6Z" />
		<path id="Layer" class="shp0" d="M127.5 117.8C143.9 133.2 159.9 148.1 162.6 150.3L165.7 153L168.3 150.7C173.5 146.1 208 113.6 208 113.3C208 113.1 188.8 113 165.3 113L122.5 113L127.5 117.8Z" />
		<path id="Layer" class="shp0" d="M92.9 118.4C92.7 118.6 80.4 119.1 65.5 119.5C50.7 119.9 38.3 120.4 38 120.6C37.5 121.2 36.2 152 36.1 167.5L36 179.5L66 149.5C82.5 133 96 119.2 96 118.8C96 118 93.7 117.7 92.9 118.4Z" />
		<path id="Layer" class="shp0" d="M116.4 127.2C116.7 130.1 117.3 143.4 117.6 156.7L118.3 180.8L123.4 181.4C126.2 181.7 139.5 182.2 153 182.6L177.5 183.2L147 152.6C130.2 135.8 116.3 122 116.1 122C115.9 122 116 124.4 116.4 127.2Z" />
		<path id="Layer" class="shp0" d="M99.4 131.3C96.1 134.8 87.3 144.3 79.7 152.4C72.1 160.5 66 167.5 66.2 168C66.4 168.5 71.7 174.4 78 181.2C84.3 188 92.9 197.2 97 201.6C101.1 206.1 104.8 209.8 105.3 209.9C105.7 209.9 106 190.9 106 167.5C106 144.1 105.8 125 105.6 125C105.4 125 102.6 127.8 99.4 131.3Z" />
	</g>
</svg>