<svg version="1.2" baseProfile="tiny-ps" xmlns="http://www.w3.org/2000/svg" viewBox="0 0 1623 386" width="712" height="169">
	<title>socbay-svg</title>
	<style>
		tspan { white-space:pre }
		.shp0 { fill: #c91d27 } 
		.shp1 { fill: #000000 } 
	</style>
	<g id="Layer">
		<path id="Layer" class="shp0" d="M117 130C117.1 164.4 117.3 173.2 118.3 171.9C119 171 127.6 161.6 137.5 151.1C147.4 140.5 155.5 131 155.5 130C155.5 129 153 125.6 150 122.3C127.2 97.8 122.8 93.1 120.1 90L117 86.5L117 130Z" />
		<path id="Layer" class="shp0" d="M46 114.9C46 115.2 59.5 129 76.1 145.5L106.1 175.5L105.4 150.5C105.1 136.7 104.5 123.5 104.1 121L103.5 116.5L86.5 115.8C49.6 114.4 46 114.3 46 114.9Z" />
		<path id="Layer" class="shp0" d="M156.5 148.2L126.5 178.5L130.8 178.8C136 179.2 184 177.3 184.6 176.7C185.2 176.2 187.3 121.6 186.8 119.5C186.6 118.5 175.6 129 156.5 148.2Z" />
		<path id="Layer" fill-rule="evenodd" class="shp1" d="M1326.5 121.3C1328.1 121.9 1428 255.3 1427.4 256.2C1427.1 256.6 1420.1 257 1411.9 257C1394.2 257 1397.9 259.5 1380 235.6L1367.5 219L1285.2 219L1272 236.7C1264.7 246.5 1258.1 255 1257.3 255.7C1255.6 257 1226.5 257.5 1225.6 256.2C1225.3 255.8 1227 252.9 1229.3 249.9C1231.7 246.9 1254.3 216.7 1279.5 182.7C1304.8 148.8 1325.9 121.1 1326.5 121.3ZM1326.5 165.1C1325.3 165 1305.5 190.8 1306.2 191.5C1306.5 191.8 1315.8 191.9 1326.9 191.8L1347 191.5L1337.3 178.3C1331.9 171 1327 165.1 1326.5 165.1Z" />
		<path id="Layer" class="shp1" d="M1433 138.7C1433 150.9 1434.5 157.6 1439.1 166.7C1448.8 185.8 1473.3 200.8 1499.3 203.6C1502.7 204 1506.2 204.6 1507 205.1C1508.3 205.7 1508.5 209.7 1508.5 231.2L1508.5 256.5L1521 256.5L1533.5 256.5L1534.2 252.5C1534.6 250.3 1534.9 238.7 1534.9 226.8L1535 205.1L1538.8 204.5C1565 200.2 1579 194.3 1592.1 182.2C1599.7 175.2 1605.2 167.1 1608.1 158.2C1609.9 152.9 1610.4 149.1 1610.4 140L1610.5 128.5L1598.6 128.2C1592 128.1 1586.3 128.3 1585.8 128.8C1585.3 129.3 1584.8 133.7 1584.7 138.6C1584.3 151.7 1580 159.8 1569.4 167.1C1551.8 179.2 1514 182.6 1489 174.4C1479.1 171.1 1468.4 163.9 1464.3 157.7C1460.1 151.4 1459 147.3 1459 137.4C1459 130.9 1458.7 129.1 1457.4 128.6C1456.5 128.3 1450.7 128 1444.4 128L1433 128L1433 138.7Z" />
		<path id="Layer" class="shp1" d="M328.3 130.5C313.4 135.1 303.5 147.7 302.3 163.3C300.9 182 310.4 196.5 328.5 203.2C334.4 205.3 335.8 205.4 390 205.9C450.9 206.6 448.5 206.3 452.6 212.5C455 216.2 454 223.5 450.6 226.9L448 229.5L375 229.8L302 230L302 243.6L302 257.1L375.8 256.8L449.5 256.5L455.2 254.2C467.3 249.3 474.7 241.9 478 231.1C483.2 214.7 477.9 197.3 465 187.7C462.7 186.1 457.7 183.6 453.7 182.2L446.5 179.7L393.5 179.3C364.1 179.1 338.9 178.5 336.9 178C329.7 176 326.4 168.9 329.4 161.7C332.2 154.8 329.6 155 409 155L480 155L480 142L480 129L406.3 129.1C348.2 129.1 331.6 129.4 328.3 130.5Z" />
		<path id="Layer" fill-rule="evenodd" class="shp1" d="M674.5 131C699.7 133.1 710.7 140.7 714.5 158.5C716.3 167 716.6 210.7 714.9 222.7C712.4 240.7 703.1 250.7 685.1 254.6C674.1 257 621 258.6 595.2 257.2C566.4 255.7 558.5 253.5 549.5 244.6C541.6 236.6 539 224.7 539 195.9C539 175.4 540.4 160.6 543.1 153.4C545.8 146.2 553.1 138.8 560.3 136.2C569.8 132.6 577.1 131.8 606 131.1C650.1 130 661.6 130 674.5 131ZM575.9 158.9C567.6 160.7 567.1 161.2 565.9 171.5C564.6 182.3 565.2 220.3 566.8 224.2C569.3 230.3 576.5 231.2 623.9 231.1C660.7 231 676.8 230.1 683.6 227.9C689.1 226.2 689.5 223.8 689.5 192C689.5 171.4 689.2 162.9 688.3 161.4C687.5 160.1 685.3 158.8 682.4 158.1C672.6 155.6 588.2 156.2 575.9 158.9Z" />
		<path id="Layer" fill-rule="evenodd" class="shp1" d="M1082.2 130C1163.2 130 1161.2 129.8 1172.8 137.9C1179.6 142.7 1183.2 147.3 1186.1 155.1C1190.1 165.5 1188.3 181.8 1182.4 190.5C1180.3 193.6 1180 194.7 1180.9 196C1181.5 196.8 1183.3 200 1184.8 203C1187.3 208 1187.5 209.5 1187.5 220C1187.5 230.7 1187.3 231.9 1184.6 237.3C1179.5 247.3 1169.6 254.5 1157.5 257C1154.3 257.7 1127.5 257.9 1081.5 257.8L1010.5 257.5L1010.2 195C1010.1 160.6 1010.2 131.9 1010.5 131.2C1010.8 130.3 1026.1 130 1082.2 130ZM1092.8 156L1036.9 156L1037.2 168.2L1037.5 180.5L1092.5 180.8C1130.5 181 1149.1 180.8 1152.7 180C1159.5 178.5 1162 175.5 1162 169C1162 163 1159.5 159.7 1153.3 157.6C1149.3 156.2 1141.3 156 1092.8 156ZM1093.1 207L1036.9 207L1037.2 219.2L1037.5 231.5L1093 231.8C1140.2 232 1149.2 231.8 1153.7 230.5C1160.2 228.6 1162 226.2 1162 219.4C1162 213.3 1159.4 210 1153.2 208.2C1150.4 207.3 1133 207 1093.1 207Z" />
		<path id="Layer" class="shp1" d="M843.5 132.5C831.5 134.2 826.3 135.5 817 139.1C797.5 146.6 784 159.7 777.8 177.2C775.1 184.8 774.7 200.6 776.9 208.5C785.2 237.8 811.8 254.3 855.5 257.1C872.3 258.2 950.4 258 951.5 256.8C951.9 256.5 951.8 250.6 951.5 243.8L950.8 231.5L910.9 231.9C887.3 232.1 865.1 231.8 856.6 231.1C828.7 229 812 221.5 804.5 207.9C801.9 203.2 801.6 201.5 801.5 194.5C801.5 187.8 801.9 185.7 804.2 181.5C810.7 169 825 161.2 847.5 158C851.4 157.5 876 157 902.6 157L950.8 157L951.5 145.1C951.9 138.5 951.9 132.7 951.5 132.1C950.5 130.5 855.3 130.8 843.5 132.5Z" />
		<path id="Layer" class="shp0" d="M51.9 149.3C49.4 151.6 41.5 158.9 34.4 165.6C27.3 172.2 19.7 179.3 17.5 181.3L13.5 184.9L57 184.9L100.5 184.9L94.5 179.3C91.2 176.2 82.5 168.1 75.3 161.3C62.8 149.5 57.6 145 56.8 145C56.7 145 54.4 146.9 51.9 149.3Z" />
		<path id="Layer" class="shp0" d="M111.8 181.6C109.6 182.7 109 183.8 109 186.5C109 190.8 111.2 193 115.5 193C119.4 193 121 191 121 186.1C121 183.7 120.3 182.7 118 181.5C114.6 179.7 115.2 179.7 111.8 181.6Z" />
		<path id="Layer" class="shp0" d="M133.5 194.8C149.9 210.2 165.9 225.1 168.6 227.3L171.7 230L174.3 227.7C179.5 223.1 214 190.6 214 190.3C214 190.1 194.8 190 171.3 190L128.5 190L133.5 194.8Z" />
		<path id="Layer" class="shp0" d="M98.9 195.4C98.7 195.6 86.4 196.1 71.5 196.5C56.7 196.9 44.3 197.4 44 197.6C43.5 198.2 42.2 229 42.1 244.5L42 256.5L72 226.5C88.5 210 102 196.2 102 195.8C102 195 99.7 194.7 98.9 195.4Z" />
		<path id="Layer" class="shp0" d="M122.4 204.2C122.7 207.1 123.3 220.4 123.6 233.7L124.3 257.8L129.4 258.4C132.2 258.7 145.5 259.2 159 259.6L183.5 260.2L153 229.6C136.2 212.8 122.3 199 122.1 199C121.9 199 122 201.4 122.4 204.2Z" />
		<path id="Layer" class="shp0" d="M105.4 208.3C102.1 211.8 93.3 221.3 85.7 229.4C78.1 237.5 72 244.5 72.2 245C72.4 245.5 77.7 251.4 84 258.2C90.3 265 98.9 274.2 103 278.6C107.1 283.1 110.8 286.8 111.3 286.9C111.7 286.9 112 267.9 112 244.5C112 221.1 111.8 202 111.6 202C111.4 202 108.6 204.8 105.4 208.3Z" />
	</g>
</svg>